<?xml version="1.0" encoding="UTF-8" standalone="no"?>
<!-- Created with Inkscape (http://www.inkscape.org/) -->

<svg
   width="487.2699mm"
   height="264.92581mm"
   viewBox="0 0 487.26989 264.92582"
   version="1.1"
   id="svg1"
   xml:space="preserve"
   inkscape:version="1.4 (e7c3feb100, 2024-10-09)"
   sodipodi:docname="drawing.svg"
   xmlns:inkscape="http://www.inkscape.org/namespaces/inkscape"
   xmlns:sodipodi="http://sodipodi.sourceforge.net/DTD/sodipodi-0.dtd"
   xmlns="http://www.w3.org/2000/svg"
   xmlns:svg="http://www.w3.org/2000/svg"><sodipodi:namedview
     id="namedview1"
     pagecolor="#ffffff"
     bordercolor="#000000"
     borderopacity="0.25"
     inkscape:showpageshadow="2"
     inkscape:pageopacity="0.0"
     inkscape:pagecheckerboard="0"
     inkscape:deskcolor="#d1d1d1"
     inkscape:document-units="mm"
     inkscape:zoom="0.75187991"
     inkscape:cx="365.7499"
     inkscape:cy="563.91984"
     inkscape:window-width="1920"
     inkscape:window-height="1053"
     inkscape:window-x="0"
     inkscape:window-y="1080"
     inkscape:window-maximized="1"
     inkscape:current-layer="layer1"
     showgrid="false" /><defs
     id="defs1"><rect
       x="1131.8297"
       y="368.40991"
       width="214.12994"
       height="279.29993"
       id="rect4" /></defs><g
     inkscape:label="Layer 1"
     inkscape:groupmode="layer"
     id="layer1"
     transform="translate(133.8237,47.961664)"><g
       id="p-1"
       style="fill:none;stroke-linecap:round;stroke-linejoin:round"
       transform="translate(-143.7437,-57.412887)"><path
         d="m 30.28,267.72 h 8.37 c 0.08,0 0,-0.08 0,0 v 5.12 c 0,0.044 0.036,0.08 0.08,0.08 h 10.4 c 0.044,0 0.08,-0.036 0.08,-0.08 v -5.12 c 0,-0.08 -0.08,0 0,0 h 8.37 8.37 c 0.08,0 0,-0.08 0,0 v 5.12 c 0,0.044 0.036,0.08 0.08,0.08 h 10.4 c 0.044,0 0.08,-0.036 0.08,-0.08 v -5.12 c 0,-0.08 -0.08,0 0,0 h 8.37 c 2.647,0 5.248,-0.697 7.54,-2.02 2.292,-1.324 4.196,-3.228 5.52,-5.52 1.323,-2.292 2.02,-4.893 2.02,-7.54 v -12.52 c 0,-0.08 -0.08,0 0,0 h 5.12 c 0.044,0 0.08,-0.036 0.08,-0.08 v -10.4 c 0,-0.044 -0.036,-0.08 -0.08,-0.08 h -5.12 c -0.08,0 0,0.08 0,0 v -10.24 c 0,-0.08 -0.08,0 0,0 h 5.12 c 0.044,0 0.08,-0.036 0.08,-0.08 v -10.4 c 0,-0.044 -0.036,-0.08 -0.08,-0.08 h -5.12 c -0.08,0 0,0.08 0,0 v -10.24 c 0,-0.08 -0.08,0 0,0 h 5.12 c 0.044,0 0.08,-0.036 0.08,-0.08 v -10.4 c 0,-0.044 -0.036,-0.08 -0.08,-0.08 h -5.12 c -0.08,0 0,0.08 0,0 v -10.24 c 0,-0.08 -0.08,0 0,0 h 5.12 c 0.044,0 0.08,-0.036 0.08,-0.08 v -10.4 c 0,-0.044 -0.036,-0.08 -0.08,-0.08 h -5.12 c -0.08,0 0,0.08 0,0 v -10.24 c 0,-0.08 -0.08,0 0,0 h 5.12 c 0.044,0 0.08,-0.036 0.08,-0.08 v -10.4 c 0,-0.044 -0.036,-0.08 -0.08,-0.08 h -5.12 c -0.08,0 0,0.08 0,0 v -10.24 c 0,-0.08 -0.08,0 0,0 h 5.12 c 0.044,0 0.08,-0.036 0.08,-0.08 v -10.4 c 0,-0.044 -0.036,-0.08 -0.08,-0.08 h -5.12 c -0.08,0 0,0.08 0,0 v -12.52 c 0,-2.647 -0.697,-5.248 -2.02,-7.54 -1.324,-2.292 -3.228,-4.196 -5.52,-5.52 -2.292,-1.323 -4.893,-2.02 -7.54,-2.02 H 73.26 c -0.08,0 0,0.08 0,0 v -5.12 c 0,-0.044 -0.036,-0.08 -0.08,-0.08 h -10.4 c -0.044,0 -0.08,0.036 -0.08,0.08 v 5.12 c 0,0.08 0.08,0 0,0 H 52.46 c -0.08,0 0,0.08 0,0 v -5.12 c 0,-0.044 -0.036,-0.08 -0.08,-0.08 h -10.4 c -0.044,0 -0.08,0.036 -0.08,0.08 v 5.12 c 0,0.08 0.08,0 0,0 H 30.28 c -2.647,0 -5.248,0.697 -7.54,2.02 -2.292,1.324 -4.196,3.228 -5.52,5.52 -1.323,2.292 -2.02,4.893 -2.02,7.54 v 12.52 c 0,0.08 0.08,0 0,0 h -5.12 c -0.044,0 -0.08,0.036 -0.08,0.08 v 10.4 c 0,0.044 0.036,0.08 0.08,0.08 h 5.12 c 0.08,0 0,-0.08 0,0 v 10.24 c 0,0.08 0.08,0 0,0 h -5.12 c -0.044,0 -0.08,0.036 -0.08,0.08 v 10.4 c 0,0.044 0.036,0.08 0.08,0.08 h 5.12 c 0.08,0 0,-0.08 0,0 v 10.24 c 0,0.08 0.08,0 0,0 h -5.12 c -0.044,0 -0.08,0.036 -0.08,0.08 v 10.4 c 0,0.044 0.036,0.08 0.08,0.08 h 5.12 c 0.08,0 0,-0.08 0,0 v 10.24 c 0,0.08 0.08,0 0,0 h -5.12 c -0.044,0 -0.08,0.036 -0.08,0.08 v 10.4 c 0,0.044 0.036,0.08 0.08,0.08 h 5.12 c 0.08,0 0,-0.08 0,0 v 10.24 c 0,0.08 0.08,0 0,0 h -5.12 c -0.044,0 -0.08,0.036 -0.08,0.08 v 10.4 c 0,0.044 0.036,0.08 0.08,0.08 h 5.12 c 0.08,0 0,-0.08 0,0 v 10.24 c 0,0.08 0.08,0 0,0 h -5.12 c -0.044,0 -0.08,0.036 -0.08,0.08 v 10.4 c 0,0.044 0.036,0.08 0.08,0.08 h 5.12 c 0.08,0 0,-0.08 0,0 v 12.52 c 0,2.647 0.697,5.248 2.02,7.54 1.324,2.292 3.228,4.196 5.52,5.52 2.292,1.323 4.893,2.02 7.54,2.02 z"
         stroke="#000000"
         stroke-width="0.16"
         id="path2" /></g><g
       id="p-2"
       style="fill:none;stroke-linecap:round;stroke-linejoin:round"
       transform="translate(-140.41742,-57.848936)"><path
         d="m 128.04,257.24 h 54.6 c 0.822,0 1.629,-0.216 2.34,-0.627 0.711,-0.411 1.302,-1.002 1.713,-1.713 0.411,-0.711 0.627,-1.518 0.627,-2.34 v -139.6 c 0,-0.822 -0.216,-1.629 -0.627,-2.34 -0.411,-0.711 -1.002,-1.302 -1.713,-1.713 -0.711,-0.411 -1.518,-0.627 -2.34,-0.627 h -54.6 c -0.822,0 -1.629,0.216 -2.34,0.627 -0.711,0.411 -1.302,1.002 -1.713,1.713 -0.411,0.711 -0.627,1.518 -0.627,2.34 v 139.6 c 0,0.822 0.216,1.629 0.627,2.34 0.411,0.711 1.002,1.302 1.713,1.713 0.711,0.411 1.518,0.627 2.34,0.627 z m 0,10.48 h 8.37 c 0.08,0 0,-0.08 0,0 v 5.12 c 0,0.044 0.036,0.08 0.08,0.08 h 10.4 c 0.044,0 0.08,-0.036 0.08,-0.08 v -5.12 c 0,-0.08 -0.08,0 0,0 h 8.37 8.37 c 0.08,0 0,-0.08 0,0 v 5.12 c 0,0.044 0.036,0.08 0.08,0.08 h 10.4 c 0.044,0 0.08,-0.036 0.08,-0.08 v -5.12 c 0,-0.08 -0.08,0 0,0 h 8.37 c 2.647,0 5.248,-0.697 7.54,-2.02 2.292,-1.324 4.196,-3.228 5.52,-5.52 1.323,-2.292 2.02,-4.893 2.02,-7.54 v -12.52 c 0,-0.08 -0.08,0 0,0 h 5.12 c 0.044,0 0.08,-0.036 0.08,-0.08 v -10.4 c 0,-0.044 -0.036,-0.08 -0.08,-0.08 h -5.12 c -0.08,0 0,0.08 0,0 v -10.24 c 0,-0.08 -0.08,0 0,0 h 5.12 c 0.044,0 0.08,-0.036 0.08,-0.08 v -10.4 c 0,-0.044 -0.036,-0.08 -0.08,-0.08 h -5.12 c -0.08,0 0,0.08 0,0 v -10.24 c 0,-0.08 -0.08,0 0,0 h 5.12 c 0.044,0 0.08,-0.036 0.08,-0.08 v -10.4 c 0,-0.044 -0.036,-0.08 -0.08,-0.08 h -5.12 c -0.08,0 0,0.08 0,0 v -10.24 c 0,-0.08 -0.08,0 0,0 h 5.12 c 0.044,0 0.08,-0.036 0.08,-0.08 v -10.4 c 0,-0.044 -0.036,-0.08 -0.08,-0.08 h -5.12 c -0.08,0 0,0.08 0,0 v -10.24 c 0,-0.08 -0.08,0 0,0 h 5.12 c 0.044,0 0.08,-0.036 0.08,-0.08 v -10.4 c 0,-0.044 -0.036,-0.08 -0.08,-0.08 h -5.12 c -0.08,0 0,0.08 0,0 v -10.24 c 0,-0.08 -0.08,0 0,0 h 5.12 c 0.044,0 0.08,-0.036 0.08,-0.08 v -10.4 c 0,-0.044 -0.036,-0.08 -0.08,-0.08 h -5.12 c -0.08,0 0,0.08 0,0 v -12.52 c 0,-2.647 -0.697,-5.248 -2.02,-7.54 -1.324,-2.292 -3.228,-4.196 -5.52,-5.52 -2.292,-1.323 -4.893,-2.02 -7.54,-2.02 h -11.62 c -0.08,0 0,0.08 0,0 v -5.12 c 0,-0.044 -0.036,-0.08 -0.08,-0.08 h -10.4 c -0.044,0 -0.08,0.036 -0.08,0.08 v 5.12 c 0,0.08 0.08,0 0,0 h -10.24 c -0.08,0 0,0.08 0,0 v -5.12 c 0,-0.044 -0.036,-0.08 -0.08,-0.08 h -10.4 c -0.044,0 -0.08,0.036 -0.08,0.08 v 5.12 c 0,0.08 0.08,0 0,0 h -11.62 c -2.647,0 -5.248,0.697 -7.54,2.02 -2.292,1.324 -4.196,3.228 -5.52,5.52 -1.323,2.292 -2.02,4.893 -2.02,7.54 v 12.52 c 0,0.08 0.08,0 0,0 h -5.12 c -0.044,0 -0.08,0.036 -0.08,0.08 v 10.4 c 0,0.044 0.036,0.08 0.08,0.08 h 5.12 c 0.08,0 0,-0.08 0,0 v 10.24 c 0,0.08 0.08,0 0,0 h -5.12 c -0.044,0 -0.08,0.036 -0.08,0.08 v 10.4 c 0,0.044 0.036,0.08 0.08,0.08 h 5.12 c 0.08,0 0,-0.08 0,0 v 10.24 c 0,0.08 0.08,0 0,0 h -5.12 c -0.044,0 -0.08,0.036 -0.08,0.08 v 10.4 c 0,0.044 0.036,0.08 0.08,0.08 h 5.12 c 0.08,0 0,-0.08 0,0 v 10.24 c 0,0.08 0.08,0 0,0 h -5.12 c -0.044,0 -0.08,0.036 -0.08,0.08 v 10.4 c 0,0.044 0.036,0.08 0.08,0.08 h 5.12 c 0.08,0 0,-0.08 0,0 v 10.24 c 0,0.08 0.08,0 0,0 h -5.12 c -0.044,0 -0.08,0.036 -0.08,0.08 v 10.4 c 0,0.044 0.036,0.08 0.08,0.08 h 5.12 c 0.08,0 0,-0.08 0,0 v 10.24 c 0,0.08 0.08,0 0,0 h -5.12 c -0.044,0 -0.08,0.036 -0.08,0.08 v 10.4 c 0,0.044 0.036,0.08 0.08,0.08 h 5.12 c 0.08,0 0,-0.08 0,0 v 12.52 c 0,2.647 0.697,5.248 2.02,7.54 1.324,2.292 3.228,4.196 5.52,5.52 2.292,1.323 4.893,2.02 7.54,2.02 z"
         stroke="#000000"
         stroke-width="0.16"
         id="path3" /></g><g
       id="p-4"
       style="fill:none;stroke-linecap:round;stroke-linejoin:round"
       transform="translate(-143.2328,-57.881664)"><path
         d="m 10.08,90.16 h 8.45 c 0.044,0 0.08,-0.036 0.08,-0.08 v -5.12 c 0,-0.08 -0.08,0 0,0 h 10.24 c 0.08,0 0,-0.08 0,0 v 5.12 c 0,0.044 0.036,0.08 0.08,0.08 h 8.45 22.56 12.6 c 0.044,0 0.08,-0.036 0.08,-0.08 v -5.12 c 0,-0.08 -0.08,0 0,0 h 10.24 c 0.08,0 0,-0.08 0,0 v 5.12 c 0,0.044 0.035,0.08 0.08,0.08 h 10.4 c 0.044,0 0.08,-0.036 0.08,-0.08 v -5.12 c 0,-0.08 -0.08,0 0,0 h 10.24 c 0.08,0 0,-0.08 0,0 v 5.12 c 0,0.044 0.035,0.08 0.08,0.08 h 10.4 c 0.044,0 0.08,-0.036 0.08,-0.08 v -5.12 c 0,-0.08 -0.08,0 0,0 h 10.24 c 0.08,0 0,-0.08 0,0 v 5.12 c 0,0.044 0.035,0.08 0.08,0.08 h 10.4 c 0.044,0 0.08,-0.036 0.08,-0.08 v -5.12 c 0,-0.08 -0.08,0 0,0 h 10.24 c 0.08,0 0,-0.08 0,0 v 5.12 c 0,0.044 0.035,0.08 0.08,0.08 h 10.4 c 0.044,0 0.08,-0.036 0.08,-0.08 v -5.12 c 0,-0.08 -0.08,0 0,0 h 10.24 c 0.08,0 0,-0.08 0,0 v 5.12 c 0,0.044 0.035,0.08 0.08,0.08 h 10.4 c 0.044,0 0.08,-0.036 0.08,-0.08 v -5.12 c 0,-0.08 -0.08,0 0,0 h 10.24 c 0.08,0 0,-0.08 0,0 v 5.12 c 0,0.044 0.035,0.08 0.08,0.08 h 12.6 22.559 11.7 c 0.044,0 0.08,-0.036 0.08,-0.08 v -5.12 c 0,-0.08 -0.08,0 0,0 h 10.24 c 0.08,0 0,-0.08 0,0 v 5.12 c 0,0.044 0.036,0.08 0.08,0.08 h 10.4 c 0.044,0 0.08,-0.036 0.08,-0.08 v -5.12 c 0,-0.08 -0.08,0 0,0 h 10.24 c 0.08,0 0,-0.08 0,0 v 5.12 c 0,0.044 0.036,0.08 0.08,0.08 h 11.7 22.56 12.6 c 0.044,0 0.08,-0.036 0.08,-0.08 v -5.12 c 0,-0.08 -0.08,0 0,0 h 10.24 c 0.08,0 0,-0.08 0,0 v 5.12 c 0,0.044 0.036,0.08 0.08,0.08 h 10.4 c 0.044,0 0.08,-0.036 0.08,-0.08 v -5.12 c 0,-0.08 -0.08,0 0,0 h 10.24 c 0.08,0 0,-0.08 0,0 v 5.12 c 0,0.044 0.036,0.08 0.08,0.08 h 10.4 c 0.044,0 0.08,-0.036 0.08,-0.08 v -5.12 c 0,-0.08 -0.08,0 0,0 h 10.24 c 0.08,0 0,-0.08 0,0 v 5.12 c 0,0.044 0.036,0.08 0.08,0.08 h 10.4 c 0.044,0 0.08,-0.036 0.08,-0.08 v -5.12 c 0,-0.08 -0.08,0 0,0 h 10.24 c 0.08,0 0,-0.08 0,0 v 5.12 c 0,0.044 0.036,0.08 0.08,0.08 h 10.4 c 0.044,0 0.08,-0.036 0.08,-0.08 v -5.12 c 0,-0.08 -0.08,0 0,0 h 10.24 c 0.08,0 0,-0.08 0,0 v 5.12 c 0,0.044 0.036,0.08 0.08,0.08 h 10.4 c 0.044,0 0.08,-0.036 0.08,-0.08 v -5.12 c 0,-0.08 -0.08,0 0,0 h 10.24 c 0.08,0 0,-0.08 0,0 v 5.12 c 0,0.044 0.036,0.08 0.08,0.08 h 12.6 22.56 8.45 c 0.044,0 0.08,-0.036 0.08,-0.08 v -5.12 c 0,-0.08 -0.08,0 0,0 h 10.24 c 0.08,0 0,-0.08 0,0 v 5.12 c 0,0.044 0.035,0.08 0.08,0.08 h 8.45 c 0.044,0 0.08,-0.036 0.08,-0.08 v -5.2 -13.19 c 0,-0.197 0.06,-0.39 0.173,-0.551 0.113,-0.161 0.273,-0.284 0.458,-0.352 0.185,-0.067 0.387,-0.076 0.577,-0.025 0.19,0.051 0.36,0.16 0.487,0.31 l 4.127,4.918 c 0.147,0.176 0.346,0.303 0.568,0.362 0.222,0.06 0.457,0.05 0.673,-0.029 0.216,-0.079 0.402,-0.222 0.534,-0.41 0.132,-0.188 0.203,-0.413 0.203,-0.643 V 56.09 c 0,-0.23 -0.071,-0.455 -0.203,-0.643 -0.132,-0.188 -0.318,-0.331 -0.534,-0.41 -0.216,-0.079 -0.451,-0.089 -0.673,-0.029 -0.222,0.059 -0.421,0.186 -0.568,0.362 l -4.127,4.918 c -0.127,0.15 -0.297,0.259 -0.487,0.31 -0.19,0.051 -0.392,0.042 -0.577,-0.025 -0.185,-0.068 -0.345,-0.191 -0.458,-0.352 -0.113,-0.161 -0.173,-0.354 -0.173,-0.551 V 40.49 c 0,-0.197 0.06,-0.39 0.173,-0.551 0.113,-0.161 0.273,-0.284 0.458,-0.352 0.185,-0.067 0.387,-0.076 0.577,-0.025 0.19,0.051 0.36,0.16 0.487,0.31 l 4.127,4.918 c 0.147,0.176 0.346,0.303 0.568,0.362 0.222,0.06 0.457,0.05 0.673,-0.029 0.216,-0.079 0.402,-0.222 0.534,-0.41 0.132,-0.188 0.203,-0.413 0.203,-0.643 V 24.89 c 0,-0.23 -0.071,-0.455 -0.203,-0.643 -0.132,-0.188 -0.318,-0.331 -0.534,-0.41 -0.216,-0.079 -0.451,-0.089 -0.673,-0.029 -0.222,0.059 -0.421,0.186 -0.568,0.362 l -4.127,4.918 c -0.127,0.15 -0.297,0.259 -0.487,0.31 -0.19,0.051 -0.392,0.042 -0.577,-0.025 -0.185,-0.068 -0.345,-0.191 -0.458,-0.352 -0.113,-0.161 -0.173,-0.354 -0.173,-0.551 v -13.19 -5.2 c 0,-0.044 -0.036,-0.08 -0.08,-0.08 h -8.45 c -0.045,0 -0.08,0.036 -0.08,0.08 v 5.12 c 0,0.08 0.08,0 0,0 h -10.24 c -0.08,0 0,0.08 0,0 v -5.12 c 0,-0.044 -0.036,-0.08 -0.08,-0.08 h -8.45 -22.56 -12.6 c -0.044,0 -0.08,0.036 -0.08,0.08 v 5.12 c 0,0.08 0.08,0 0,0 h -10.24 c -0.08,0 0,0.08 0,0 v -5.12 c 0,-0.044 -0.036,-0.08 -0.08,-0.08 h -10.4 c -0.044,0 -0.08,0.036 -0.08,0.08 v 5.12 c 0,0.08 0.08,0 0,0 h -10.24 c -0.08,0 0,0.08 0,0 v -5.12 c 0,-0.044 -0.036,-0.08 -0.08,-0.08 h -10.4 c -0.044,0 -0.08,0.036 -0.08,0.08 v 5.12 c 0,0.08 0.08,0 0,0 h -10.24 c -0.08,0 0,0.08 0,0 v -5.12 c 0,-0.044 -0.036,-0.08 -0.08,-0.08 h -10.4 c -0.044,0 -0.08,0.036 -0.08,0.08 v 5.12 c 0,0.08 0.08,0 0,0 h -10.24 c -0.08,0 0,0.08 0,0 v -5.12 c 0,-0.044 -0.036,-0.08 -0.08,-0.08 h -10.4 c -0.044,0 -0.08,0.036 -0.08,0.08 v 5.12 c 0,0.08 0.08,0 0,0 h -10.24 c -0.08,0 0,0.08 0,0 v -5.12 c 0,-0.044 -0.036,-0.08 -0.08,-0.08 h -10.4 c -0.044,0 -0.08,0.036 -0.08,0.08 v 5.12 c 0,0.08 0.08,0 0,0 h -10.24 c -0.08,0 0,0.08 0,0 v -5.12 c 0,-0.044 -0.036,-0.08 -0.08,-0.08 h -12.6 -22.56 -11.7 c -0.044,0 -0.08,0.036 -0.08,0.08 v 5.12 c 0,0.08 0.08,0 0,0 h -10.24 c -0.08,0 0,0.08 0,0 v -5.12 c 0,-0.044 -0.036,-0.08 -0.08,-0.08 h -10.4 c -0.044,0 -0.08,0.036 -0.08,0.08 v 5.12 c 0,0.08 0.08,0 0,0 h -10.24 c -0.08,0 0,0.08 0,0 v -5.12 c 0,-0.044 -0.036,-0.08 -0.08,-0.08 h -11.7 -22.559 -12.6 c -0.045,0 -0.08,0.036 -0.08,0.08 v 5.12 c 0,0.08 0.08,0 0,0 h -10.24 c -0.08,0 0,0.08 0,0 v -5.12 c 0,-0.044 -0.036,-0.08 -0.08,-0.08 h -10.4 c -0.045,0 -0.08,0.036 -0.08,0.08 v 5.12 c 0,0.08 0.08,0 0,0 h -10.24 c -0.08,0 0,0.08 0,0 v -5.12 c 0,-0.044 -0.036,-0.08 -0.08,-0.08 h -10.4 c -0.045,0 -0.08,0.036 -0.08,0.08 v 5.12 c 0,0.08 0.08,0 0,0 h -10.24 c -0.08,0 0,0.08 0,0 v -5.12 c 0,-0.044 -0.036,-0.08 -0.08,-0.08 h -10.4 c -0.045,0 -0.08,0.036 -0.08,0.08 v 5.12 c 0,0.08 0.08,0 0,0 h -10.24 c -0.08,0 0,0.08 0,0 v -5.12 c 0,-0.044 -0.036,-0.08 -0.08,-0.08 h -10.4 c -0.045,0 -0.08,0.036 -0.08,0.08 v 5.12 c 0,0.08 0.08,0 0,0 H 93.42 c -0.08,0 0,0.08 0,0 V 10.08 C 93.42,10.036 93.384,10 93.34,10 h -10.4 c -0.045,0 -0.08,0.036 -0.08,0.08 v 5.12 c 0,0.08 0.08,0 0,0 H 72.62 c -0.08,0 0,0.08 0,0 V 10.08 C 72.62,10.036 72.584,10 72.54,10 H 59.94 37.38 28.93 c -0.044,0 -0.08,0.036 -0.08,0.08 v 5.12 c 0,0.08 0.08,0 0,0 H 18.61 c -0.08,0 0,0.08 0,0 V 10.08 C 18.61,10.036 18.574,10 18.53,10 H 10.08 C 10.036,10 10,10.036 10,10.08 v 5.2 13.19 c 0,0.23 0.071,0.455 0.203,0.643 0.131,0.188 0.318,0.331 0.534,0.41 0.216,0.079 0.451,0.089 0.673,0.029 0.222,-0.059 0.42,-0.186 0.568,-0.362 l 4.127,-4.918 c 0.126,-0.15 0.296,-0.259 0.487,-0.31 0.19,-0.051 0.391,-0.042 0.576,0.025 0.185,0.068 0.345,0.191 0.458,0.352 0.113,0.161 0.174,0.354 0.174,0.551 v 19.18 c 0,0.197 -0.061,0.39 -0.174,0.551 -0.113,0.161 -0.273,0.284 -0.458,0.352 -0.185,0.067 -0.386,0.076 -0.576,0.025 -0.191,-0.051 -0.361,-0.16 -0.487,-0.31 L 11.978,39.77 c -0.148,-0.176 -0.346,-0.303 -0.568,-0.362 -0.222,-0.06 -0.457,-0.05 -0.673,0.029 -0.216,0.079 -0.403,0.222 -0.534,0.41 C 10.071,40.035 10,40.26 10,40.49 v 19.18 c 0,0.23 0.071,0.455 0.203,0.643 0.131,0.188 0.318,0.331 0.534,0.41 0.216,0.079 0.451,0.089 0.673,0.029 0.222,-0.059 0.42,-0.186 0.568,-0.362 l 4.127,-4.918 c 0.126,-0.15 0.296,-0.259 0.487,-0.31 0.19,-0.051 0.391,-0.042 0.576,0.025 0.185,0.068 0.345,0.191 0.458,0.352 0.113,0.161 0.174,0.354 0.174,0.551 v 19.18 c 0,0.197 -0.061,0.39 -0.174,0.551 -0.113,0.161 -0.273,0.284 -0.458,0.352 -0.185,0.067 -0.386,0.076 -0.576,0.025 -0.191,-0.051 -0.361,-0.16 -0.487,-0.31 L 11.978,70.97 c -0.148,-0.176 -0.346,-0.303 -0.568,-0.362 -0.222,-0.06 -0.457,-0.05 -0.673,0.029 -0.216,0.079 -0.403,0.222 -0.534,0.41 C 10.071,71.235 10,71.46 10,71.69 v 13.19 5.2 c 0,0.044 0.036,0.08 0.08,0.08 z"
         stroke="#000000"
         stroke-width="0.16"
         id="path5" /><path
         d="M 40.86,90.16 V 52.68 m 0,-5.2 V 10 m 2.6,5.2 v 69.76 m 2.6,5.2 V 52.68 m 0,-5.2 V 10 m 2.6,5.2 v 69.76 m 2.6,5.2 V 52.68 m 0,-5.2 V 10 m 2.6,5.2 v 69.76 m 2.6,5.2 V 52.68 m 0,-5.2 V 10"
         stroke="#000000"
         stroke-width="0.16"
         id="path6" /><path
         d="M 203.019,90.16 V 52.68 m 0,-5.2 V 10 m 2.6,5.2 v 69.76 m 2.6,5.2 V 52.68 m 0,-5.2 V 10 m 2.6,5.2 v 69.76 m 2.6,5.2 V 52.68 m 0,-5.2 V 10 m 2.6,5.2 v 69.76 m 2.6,5.2 V 52.68 m 0,-5.2 V 10"
         stroke="#000000"
         stroke-width="0.16"
         id="path7" /><path
         d="M 280.179,90.16 V 52.68 m 0,-5.2 V 10 m 2.6,5.2 v 69.76 m 2.6,5.2 V 52.68 m 0,-5.2 V 10 m 2.6,5.2 v 69.76 m 2.6,5.2 V 52.68 m 0,-5.2 V 10 m 2.6,5.2 v 69.76 m 2.6,5.2 V 52.68 m 0,-5.2 V 10"
         stroke="#000000"
         stroke-width="0.16"
         id="path8" /><path
         d="M 442.339,90.16 V 52.68 m 0,-5.2 V 10 m 2.6,5.2 v 69.76 m 2.6,5.2 V 52.68 m 0,-5.2 V 10 m 2.6,5.2 v 69.76 m 2.6,5.2 V 52.68 m 0,-5.2 V 10 m 2.6,5.2 v 69.76 m 2.6,5.2 V 52.68 m 0,-5.2 V 10"
         stroke="#000000"
         stroke-width="0.16"
         id="path9" /></g><path
       d="m 70.263892,203.7678 c -3.285236,-6.21396 7.292731,-11.32282 6.871032,-10.33967 3.0735,-2.06125 6.029745,-2.15157 5.714503,-8.7751 -2.03339,-7.60124 2.062492,-13.24475 -1.732763,-20.36203 -3.77685,-5.14783 -5.491945,-8.91378 -5.972255,-17.40702 -0.02182,-5.46405 0.04714,-19.40391 0.183371,-18.3905 3.062728,-6.31647 -1.27025,0.21603 -1.336271,-5.96046 -4.318091,-4.51163 6.501363,-15.43715 1.404268,-15.42722 -4.575252,-3.18963 -1.10323,-8.985338 0.385558,-13.213054 -1.351373,-5.20785 3.120235,-24.609988 4.011901,-19.034559 2.553728,-2.46671 -1.795302,7.528625 -2.359046,12.744255 -0.173574,4.135686 -1.989505,11.245107 -2.300785,12.587858 -1.475226,0.78994 3.144185,4.74549 2.688859,5.06238 4.163186,-4.90075 5.100431,-11.420234 4.453725,-18.108585 1.133854,-4.072049 2.148149,-0.737707 2.942675,-3.642839 -1.052303,1.762438 -0.179436,11.506764 -3.898333,17.108244 -0.331259,3.83187 -2.726242,12.63877 -3.89924,10.48746 4.992271,-2.98085 -5.925239,5.5314 -1.702637,5.05298 -1.67814,3.82955 4.438393,8.4294 2.531063,6.56164 -6.327969,-2.32024 6.936042,7.77711 5.447682,5.53463 4.393626,1.16746 17.174971,5.67263 5.727912,2.47022 -3.580302,0.18869 12.188829,0.65594 9.705177,2.04253 1.690152,3.16266 13.403532,-4.09481 11.275402,-2.22348 -0.53606,2.39446 9.25632,-8.38331 8.24303,-5.1895 -5.23148,2.99773 4.31332,-4.24307 1.13672,-7.57426 -1.84943,-6.86748 -3.20288,-14.60364 -6.28426,-20.644742 2.80143,9.682892 0.7044,4.921522 -1.14643,-2.515965 -2.21265,-11.915104 0.91331,0.0219 3.45228,4.553003 0.62473,3.618894 2.46461,8.398274 5.70587,4.841744 4.15052,-3.3298 8.02039,-8.297813 11.37242,-12.119402 0.36936,-4.472556 12.32562,-2.247628 9.21683,-6.756531 -4.69205,-2.166478 -5.75217,-4.340966 -1.92041,-10.622348 -0.0509,-0.263133 2.57634,-6.209471 5.55357,-3.069522 -1.47311,-9.035061 0.14653,8.468047 4.07764,3.768482 3.40848,9.053471 -1.53412,-4.38151 -4.86439,4.366478 -6.20791,9.876603 4.54115,2.697705 4.44437,1.041564 -2.85113,5.31585 -3.26961,2.178238 -6.04833,7.521278 -4.24311,3.365862 -9.84609,0.0788 -10.53677,5.03001 -4.36693,4.924463 -5.89398,7.882911 -9.8017,11.184761 -6.30548,1.38057 -5.22193,4.72579 -2.99165,9.66395 2.4414,5.35962 -0.0682,10.40244 -1.73077,15.22914 -1.21726,6.41147 -2.4922,13.0591 -2.92256,18.24164 -1.98153,10.43471 -2.24646,14.53721 -3.11869,21.08825 0.26792,6.21674 -5.08473,16.79435 1.13698,20.57932 5.79894,4.1495 -3.94115,-4.65916 -3.20725,-2.57286 -0.57654,3.77538 11.4827,9.28489 8.7159,7.39261 -0.60393,-3.4346 -1.819,-1.97704 3.32918,0.85658 2.97007,0.28204 6.9268,0.60399 8.00794,5.00974 -4.75715,4.78 -13.02125,2.28677 -18.34337,-0.17924 -4.44764,1.3596 -9.93044,-1.28974 -14.0147,0.89699 -3.963944,-2.95881 -2.456819,2.73626 -7.489031,1.76822 -3.540995,0.56998 -7.487046,1.20938 -11.105339,1.02225 -2.236544,0.49979 -6.138856,0.30107 -9.008878,0.42068 z m 15.341536,-0.73864 c -0.287151,-0.40321 -0.287151,0.4032 0,0 z m -13.262283,-0.3088 c 7.920896,1.79179 -6.314141,-9.96442 -1.82471,-0.0284 0.571444,-0.60296 1.165478,0.52285 1.82471,0.0284 z m -0.98576,-2.44481 c 0.116281,-0.97276 0.248374,0.95911 0,0 z m 10.28896,1.60166 c 0.416206,-1.10976 2.977438,-2.25854 3.734299,-0.80295 4.072438,0.76671 5.006765,-1.98939 10.005907,-2.94206 -0.117992,-6.47402 -3.978412,-1.96622 -7.392789,-3.80116 -3.595909,-0.84453 -8.200038,-0.64092 -10.808886,1.37671 -1.396517,-2.84725 -7.0773,8.11161 -1.97573,3.72486 4.416625,1.43242 -4.472105,1.50934 5.921251,2.44875 l 0.177364,0.048 z m -1.99446,-1.87824 c 0.492923,-0.8457 2.672277,0.80261 0,0 z m 4.042876,-0.34158 c 0.214276,-0.50604 0.795535,0.43227 0,0 z m -6.343644,-0.21423 c -2.200317,-1.80315 2.347392,-0.23034 0,0 z m -1.074241,-1.87438 c 0.694005,-0.28219 0.05339,0.54148 0,0 z m 16.92434,-0.0318 c -0.264288,-0.55849 0.410945,0.1616 0,0 z m -1.073317,3.60883 c 0.97077,-1.79505 -2.383619,0.95447 0,0 z m 32.725801,-0.1786 c -0.6111,-1.43817 -1.17528,1.20834 0,0 z m 1.22034,0.14728 c 0.92877,-1.3447 -3.0568,0.73881 0,0 z m -6.19763,-0.16015 c -0.0779,-1.56461 7.38018,-3.6011 7.87794,-1.48869 -2.69301,0.70342 -0.0967,-4.68581 -8.07689,-4.07979 -2.87803,-0.54117 -6.66134,-4.43575 -10.30344,-5.91572 -1.39745,0.47276 -8.94635,2.92862 -6.67605,3.55604 -2.997821,0.84209 -9.367262,2.99331 -2.82144,5.20799 2.52031,0.81912 7.65568,0.71884 9.89089,-0.0366 2.25374,-2.30295 3.55966,1.75794 6.39962,1.23501 2.53522,0.66021 3.54637,1.16024 3.70937,1.52181 z m 1.07527,-1.636 c -1.0201,-0.52314 1.08164,0.15138 0,0 z m 2.25825,-0.66541 c 0.37712,-0.85369 0.20012,-0.48025 0,0 z m -22.87054,-0.45668 c 2.79178,-1.40057 1.54477,-0.14901 0,0 z m 6.17103,-0.38674 c -1.31505,-0.21808 -0.34961,-0.30117 0,0 z m 13.56653,-0.36869 c -3.23938,-0.2231 2.54639,-0.75146 0,0 z m -15.076,-0.20806 c -0.73891,-0.72987 1.54279,0.52985 0,0 z m -5.200084,-0.47419 c -0.405768,-0.77434 2.057264,0.53734 0,0 z m 0.08034,-1.86101 c -0.01326,-0.52932 0.802854,0.71032 0,0 z m 9.214234,-1.9626 c -4.28915,-0.99121 3.11294,-0.49387 0,0 z m 14.16142,7.95523 c -0.79488,-0.83198 -0.2429,0.50575 0,0 z m -6.85593,-0.67083 c -0.28714,-0.40321 -0.28714,0.40321 0,0 z m 11.56968,-1.44852 c -0.42102,-0.96368 -1.15774,0.59395 0,0 z m -31.646001,-3.12893 c -0.259856,-1.20839 -0.08111,1.11201 0,0 z m -7.055985,-2.21613 c 2.764582,0.0252 2.463792,-2.27351 3.750992,-1.78631 5.019823,-4.34981 0.888329,-19.87037 3.820727,-27.7016 -0.536431,-4.61526 1.93934,-21.11898 1.780962,-10.12951 1.878465,-7.18135 -4.951842,24.66119 -0.987206,12.27037 -1.946519,7.942 -0.994445,17.78186 -1.637172,25.81138 0.409729,3.28048 9.858383,0.38432 7.571563,-0.21823 6.4164,-3.50114 4.89948,-6.84858 6.42272,-13.51682 0.86522,-6.14903 1.14307,-8.89725 1.92431,-15.69942 1.73148,-11.02484 3.75107,-21.93434 4.94537,-32.98069 -8.98578,6.05339 -20.446413,6.84561 -30.047246,1.73509 -1.907279,-1.37948 -6.77579,-3.03596 -7.579822,-5.12862 -4.906451,-1.44972 -5.472915,16.94198 -3.171386,13.5024 0.07179,7.97293 -0.291001,15.58108 4.9227,22.35569 -1.933068,-8.05929 2.121341,14.60267 2.81207,10.23805 -0.547504,6.48413 -0.23767,17.3166 0.230919,18.59856 8.823145,0.48242 6.408851,-0.77152 1.493006,1.89238 1.176429,0.39242 2.524645,0.80029 3.747493,0.75728 z m 8.466979,-0.78268 c 1.689716,-1.44059 0.548179,0.59937 0,0 z m -0.882074,-9.12336 c 0.162219,-0.29935 0.05014,0.48457 0,0 z m 0.03448,-0.97407 c -1.048684,-9.4229 1.061826,0.17737 0,0 z m 12.095011,-2.54366 c 0.18546,-0.52473 0.39008,0.19376 0,0 z m -12.240375,-2.14872 c 0,-1.76847 0.712932,0.17365 0,0 z m 0.276156,-1.44347 c -0.136919,-1.42604 0.660011,-0.088 0,0 z m 12.223229,-1.01941 c 0.39872,-0.60618 0.0634,0.5729 0,0 z m 0.19057,-1.15361 c 0.36258,-1.21365 0.76352,0.38983 0,0 z m -12.186559,-0.94341 c -0.169339,-1.19537 0.410533,0.92455 0,0 z m 12.659859,-0.0995 c 0.37023,-0.85557 0.16565,0.85342 0,0 z m -12.726505,-1.40127 c 0.259737,-1.35151 -0.02695,1.1692 0,0 z m -0.109966,-1.13238 c -0.380201,-1.04711 0.386003,-0.85711 0,0 z m 1.348703,-6.42509 c 0.554366,-0.41279 0.09841,0.67285 0,0 z m -14.245707,-1.5168 c -3.106896,-1.75884 3.717632,-0.41327 0,0 z m 14.426323,-1.00248 c 0.07393,-1.182 0.567851,0.6356 0,0 z m -0.02156,-1.11258 c 0.04603,-1.6405 0.73636,0.76261 0,0 z m -15.474946,-0.18816 c -0.542567,-3.1559 0.963265,0.63067 0,0 z m -0.194263,-1.48387 c -0.44861,-0.76296 0.415231,0.40866 0,0 z m 15.798119,-0.16246 c -0.320204,-4.88502 0.547324,-1.07656 0,0 z m -18.87832,-1.33459 c -0.888731,-6.1136 1.096163,1.13257 0,0 z m -0.403954,-2.91245 c -0.109273,-1.2351 0.77364,0.43978 0,0 z m -0.685902,-2.00166 c -2.929121,-7.02821 1.480779,0.36362 0,0 z m -1.544199,-0.0674 c 0.09835,-0.50659 0.09835,0.5066 0,0 z m 21.899961,-2.69514 c 1.801026,-4.30554 -5.166804,-6.28966 1.361266,-5.04764 7.58915,-5.11766 -2.259649,2.87757 -1.361266,5.04764 z m -0.955839,-1.32292 c 0.394859,-1.33583 0.494472,0.6867 0,0 z m -20.440436,-1.1176 c -0.841987,-2.78612 0.496816,-1.74751 0,0 z m -0.746216,-4.77341 c -1.019994,-4.25657 1.542222,0.55735 0,0 z m 25.647337,-4.42097 c 0.12251,-0.53377 0.066,0.67699 0,0 z m -0.0219,-1.11729 c 0.7207,-2.07524 0.009,1.83132 0,0 z m 1.70468,-0.39442 c -0.2542,-1.40691 0.61139,0.75771 0,0 z m -0.14777,-1.24329 c 1.45972,-1.1079 -0.82267,1.15604 0,0 z m -14.227066,-1.351 c -1.955922,-0.12511 1.918265,-0.52423 0,0 z m -1.131423,-0.67611 c 0.288939,-0.29355 0.462205,0.79548 0,0 z m -11.261903,-2.92339 c 0.323713,-0.21417 0.262295,0.38604 0,0 z m -0.112387,-0.51786 c 0.268652,-0.54142 0.379337,0.53017 0,0 z m -0.207038,-0.37464 c 0.09834,-0.5066 0.09834,0.50659 0,0 z m 18.752773,63.67143 c -0.828409,-0.20471 0.02849,0.46616 0,0 z m -11.8584,-0.39461 c -0.860093,-0.29798 0.067,0.38816 0,0 z m -0.677432,-0.34216 c 0.472473,-1.12105 -0.568022,0.76831 0,0 z m 26.082226,-4.03637 c -0.86689,-0.71936 -0.77222,1.03268 0,0 z M 98.193325,153.91377 c -0.271305,-0.78127 -0.271305,0.78127 0,0 z m 0.06708,-20.3606 c -0.772887,-0.61351 -4.290865,0.73399 0,0 z m -21.937207,-9.37892 c 0.06588,-0.72538 -0.932891,0.25298 0,0 z M 74.4523,119.13489 c 0.18261,-3.49406 -0.557728,0.76304 0,0 z m 2.105521,-12.94048 c -0.164838,-5.70568 -6.473075,-3.584 0,0 z M 75.179,104.57358 c 0.09038,-0.70339 0.09038,0.7034 0,0 z m -0.588035,-6.886665 c -0.455643,-0.11216 -0.05185,0.811404 0,0 z m 8.80267,-9.321259 c -0.611976,-3.652859 -0.316191,3.593792 0,0 z m 0.686887,-1.503571 c -0.181267,-1.884668 -0.522828,1.115464 0,0 z M 77.724411,84.24303 c 3.587147,-10.89533 -2.335096,-6.34105 0,0 z m 61.976999,-1.546751 c 6.3012,-1.039414 7.91014,-16.840254 1.6603,-7.987041 0.29266,2.278873 -6.29632,8.522108 -1.6603,7.987041 z m 2.66209,-0.673897 c -1.27272,0.44156 -0.64559,1.033607 0,0 z m 3.18912,-4.856847 c 1.4897,-4.212146 -1.20202,0.557318 0,0 z M 121.68334,194.38604 c 0.47274,-0.65364 0.25923,0.0971 0,0 z M 115.2489,151.2639 c -0.34459,-0.79247 0.47767,-0.29533 0,0 z m 0.44745,-5.56378 c 0.26375,-0.47179 0.0226,0.5108 0,0 z m -41.900474,-2.32313 c -0.258401,-1.09374 0.39094,-0.1778 0,0 z m 0.205036,-2.22839 c -0.344581,-0.79247 0.477684,-0.29533 0,0 z m 0.167089,-1.64797 c 0.396997,-0.68355 0.03012,0.48004 0,0 z m -0.279476,-4.30822 c -0.382136,-0.76165 0.445837,-0.43748 0,0 z m 26.159285,-2.29599 c -0.236873,-0.33008 0.64582,0.19031 0,0 z m 1.13937,0.025 c 1.77076,-2.66161 2.79731,2.06988 0,0 z m 2.45057,-0.0776 c 0.28547,-0.62868 1.54968,0.77348 0,0 z m -8.877858,-0.85538 c 0.146391,-0.26967 0.428562,0.41071 0,0 z m 16.335608,-1.7944 c 3.42659,-3.36314 6.60823,-4.42427 1.51917,-0.97049 -0.74656,-0.0235 -0.96734,0.71845 -1.51917,0.97049 z m -37.291273,-2.3328 c -1.077569,-2.88323 1.545517,1.21395 0,0 z m 26.580763,-0.83113 c -2.862235,-10.54085 2.96718,-20.60779 -0.19051,-31.389963 2.67149,-11.427367 -7.450241,-8.785802 -10.279407,-14.315539 -2.757797,-2.603845 -8.201424,-13.244057 -7.791763,-9.772053 -0.523229,-5.687175 -0.590046,0.194187 -2.239864,-7.478524 3.044717,-1.627306 1.783571,-10.521084 8.589258,-12.627221 6.654453,-3.354697 17.558966,-0.366469 2.840229,-0.662296 -11.581782,7.313146 -1.633142,1.416452 5.475516,0.850159 4.954761,-2.877287 7.282871,1.335492 12.045991,3.823602 5.91142,6.733163 -10.226791,-3.735686 -7.88747,-3.93433 -1.19674,2.789764 -7.832814,-0.394131 -11.232466,3.158525 -1.327826,-3.011792 -12.852939,22.945624 -6.219671,7.696429 1.279217,3.514007 1.605411,4.642367 -2.504872,2.857487 4.044553,3.626369 1.006595,10.215538 4.9969,7.286186 -4.061853,-6.24137 2.014918,-4.024608 -0.03619,1.733482 1.000785,7.392391 3.424902,4.660946 3.978438,4.516469 1.935472,6.041374 10.002972,6.805581 13.778291,10.57988 4.58274,2.313815 10.79835,-9.444009 4.79737,-4.891323 -2.68413,2.061618 -8.589982,-2.312738 -3.63253,-3.034972 6.83397,1.795968 9.87535,-4.412385 8.06569,1.087714 -1.23005,-0.0146 -2.23442,9.350886 -7.92127,7.900485 -1.40458,6.956868 2.92669,15.333343 1.52341,24.193793 -1.19187,3.95581 -2.10248,10.7047 -6.15507,12.42198 z m 1.13551,-2.09385 c 2.4092,-3.47832 -2.608793,-0.8671 0,0 z m 1.50971,-3.2322 c 2.05585,-6.59508 -8.370889,1.38787 0,0 z m 0.80972,-2.85377 c 4.03572,-6.56615 -10.42347,-3.58486 0,0 z m 1.16365,-3.94823 c -0.0398,-5.45459 -6.881709,0.41211 0,0 z m 0.729,-2.60153 c -0.58601,-6.10344 -5.64748,-1.90169 -0.38082,-5.45786 -3.7661,-5.55982 -6.732945,7.82791 0.38082,5.45786 z m -0.63674,-7.69889 c 0.40132,-5.590884 -7.326525,0.55286 0,0 z m -1.11349,-3.40239 c -2.9548,-5.930023 -0.0887,-4.008882 -1.4112,-9.471582 -2.2206,-1.493281 -2.18856,11.450462 1.4112,9.471582 z M 101.51944,89.8332 c -0.44158,-1.465314 -0.82751,0.720074 0,0 z m 4.56947,-5.62075 c 0.53736,-1.868988 -2.4579,-2.014108 0,0 z m -1.37681,-0.712334 c -0.27079,-0.991544 -0.48382,0.739104 0,0 z m 3.07021,-0.32054 c 3.43626,-0.211537 -3.06896,-0.647034 0,0 z M 80.772536,64.449661 c -0.271305,-0.781272 -0.271305,0.781272 0,0 z m 1.936054,-3.146983 c 1.72846,-5.788858 -2.547337,1.553671 0,0 z m 1.524348,-0.899135 c 8.61704,-9.334901 -3.299928,-2.502245 0,0 z m 9.689485,-7.590005 c -0.887268,-1.017418 -0.107639,0.699328 0,0 z M 73.138732,125.75013 c 0.162228,-0.29935 0.05014,0.48457 0,0 z m -0.0086,-0.57407 c 0.110257,-1.33687 0.823592,-0.36227 0,0 z m 20.7578,-4.49669 c -0.401139,-0.72459 1.042463,0.13565 0,0 z m -15.052177,-1.12955 c 1.656766,-2.11016 0.375315,1.14262 0,0 z m 39.847145,-0.004 c -0.63542,-1.24762 1.1665,0.22573 0,0 z m -0.36538,-1.51279 c -0.95969,-2.38232 0.86848,0.46473 0.38278,0.70245 z m -42.490409,-2.27946 c 0.509873,-0.98004 0.590636,0.50027 0,0 z m 0.106971,-0.72702 c -0.130612,-1.40531 -0.106056,0.0875 0,0 z m 3.44044,-4.82145 c 0.620592,-3.29772 2.324795,-2.8246 0,0 z m -0.555717,-0.84852 c -0.501112,-1.7684 1.001161,-0.53993 0,0 z m 40.081145,-0.19511 c 0.0964,-1.39378 0.56374,1.34932 0,0 z m -38.938308,-1.6652 c 0.818817,-1.18976 -0.09743,1.04957 0,0 z m 0.993452,-0.31458 c 0.542669,-4.10916 2.520367,-6.1476 0,0 z m 39.915306,-3.30121 c 0.52365,-0.38606 0.16162,0.2505 0,0 z m -0.31116,-0.20585 c 0.21708,-0.52405 0.21708,0.52405 0,0 z m -41.528957,-0.33718 c 0.139571,-0.44309 0.403312,0.4279 0,0 z m 46.441817,-0.29464 c -8.5e-4,-1.28767 1.09986,-1.27327 0,0 z m -46.790265,-0.96025 c 0.377412,-1.85015 2.093473,0.14042 0,0 z m 3.776456,-0.92459 c 0.438239,-1.272557 1.113669,-0.0773 0,0 z m 35.278109,-1.12009 c -2.03925,-8.765799 -5.97022,-19.298569 -4.36943,-16.263787 2.96884,-2.192648 3.95581,15.496613 3.62163,11.609684 0.59312,7.256053 11.235,-3.813829 8.88188,-1.487511 6.81904,-7.956615 3.96953,-1.534401 -1.52535,2.730895 -2.19224,1.139804 -3.83273,4.276749 -6.60873,3.410719 z M 76.389109,98.623339 c 0.213276,-0.565937 0.349108,0.407597 0,0 z m 42.095931,-0.0731 c 0.4642,-0.543547 0.86539,0.32707 0,0 z m 2.97338,-0.989274 c 0.0512,-0.301807 0.66461,0.10076 0,0 z m 3.37177,-0.721177 c -0.002,-0.451347 0.76712,0.0962 0,0 z m -9.89051,-0.196607 c 0.3491,-0.407597 0.21327,0.565937 0,0 z m -0.22479,-0.611197 c -3.73836,-7.015691 0.88541,-0.15054 0,0 z M 129.288,93.258929 c -0.10801,-1.514271 1.42633,-1.603151 0,0 z m -15.91393,-1.132874 c 0.13076,-1.376161 0.33208,0.816227 0,0 z m 22.89464,-0.459547 c 1.78668,-0.13105 0.36834,0.26972 0,0 z m 1.82377,-0.348667 c 0.0131,-0.486287 0.34276,0.10222 0,0 z m -24.54576,-0.521767 c -0.19656,-0.871334 0.46944,0.368187 0,0 z M 87.923018,89.083033 c -0.13241,-1.125224 0.334656,0.929934 0,0 z M 136.2127,88.726236 c 0.50113,-0.811787 0.0288,0.819694 0,0 z m -5.98426,-0.0281 c -1.84173,-3.224062 -5.11903,-5.911357 -8.84165,-6.157597 -11.68694,0.898937 7.06903,-5.363744 4.47181,-6.69359 6.23457,-2.158056 2.28381,-15.400009 4.27233,-21.572783 11.56482,-6.188697 3.42428,9.421971 6.09983,12.034104 8.01537,-5.875483 3.1962,11.494721 3.26327,3.468873 -0.11209,-7.326417 -5.46269,1.34955 -4.83152,6.55401 -4.57415,4.300798 5.56738,6.879423 -2.46109,3.403754 5.28819,-5.369584 0.22454,-11.653795 2.21013,-17.493983 -2.44761,-2.983403 4.33147,-5.10299 -1.10393,-9.228383 -5.89636,3.841852 -0.75829,13.97329 -3.91026,19.512346 0.71166,4.97295 -2.17361,5.749328 -7.30797,4.839043 -3.05177,-0.595581 -7.46645,7.24217 -0.52907,3.464241 2.79566,-0.20202 10.76885,0.975314 9.78168,4.080706 0.0258,1.113064 0.13823,2.713735 -1.11356,3.789259 z m 3.98389,-21.595545 c -1.44037,-3.299877 0.67994,1.969346 0,0 z m -1.65591,21.389435 c -0.56189,-1.269951 1.17829,0.35487 0,0 z m 12.84155,-0.09 c 1.08854,-0.460787 -0.38178,0.588247 0,0 z M 89.539004,88.040989 c 0.426107,-0.471427 0.160107,0.665367 0,0 z m 9.535342,-0.0652 c 0.167337,-0.461897 1.227044,0.479367 0,0 z m 46.968244,0.009 c 0.14987,-4.186316 2.11455,-0.662337 0,0 z m -41.89258,-0.358457 c 0.14872,-0.435887 0.70794,0.320397 0,0 z m 1.01154,-0.388467 c 0.4523,-1.472804 2.28709,-0.0968 0,0 z m 7.61255,-0.085 c -0.35747,-0.812437 0.68915,0.822524 0,0 z M 90.390943,85.931121 c -0.169364,-0.483137 0.789186,-0.11271 0,0 z m 11.960787,-0.733087 c -0.0943,-0.706314 1.03892,0.4883 0,0 z m 36.98149,-0.257637 c 0.82491,-0.14158 -0.0522,0.357197 0,0 z M 122.75686,84.12789 c 0.0359,-0.550014 0.50802,0.21382 0,0 z m 0.45522,-0.140727 c 0.41713,-0.33854 0.28127,0.348897 0,0 z m -42.438988,-0.17795 c 0.204309,-1.030064 0.610248,-0.20297 0,0 z m 46.589148,-0.792874 c -0.0769,-0.988267 1.43834,0.634714 0,0 z m 7.9984,-0.20623 c -0.0454,-0.712227 0.52145,0.13599 0,0 z m -33.57088,-0.546277 c -1.34898,-2.438265 3.7699,-0.628067 0,0 z m -8.338108,-0.470147 c 0.492666,-0.161 0.04869,0.216387 0,0 z m 20.756228,-0.11048 c -0.56789,-1.545951 0.67273,0.447657 0,0 z m 5.6863,-0.347057 c -0.73465,-6.096192 1.44581,1.474061 0,0 z m -28.219724,-0.021 c -0.622783,-0.610497 0.427843,-0.0911 0,0 z m -6.331443,-0.531137 c -0.34613,-0.508997 0.494506,0.0961 0,0 z m 36.804637,-1.021184 c 0.31224,-2.245797 1.14926,0.544987 0,0 z m 3.84606,-0.36423 c -1.4446,-1.645574 2.20157,-0.110007 0,0 z m 10.68943,-0.457457 c 1.40252,-6.201608 3.14994,-3.044315 0,0 z m -24.27229,-1.229171 c -3.03904,-1.876219 -12.12567,2.248045 -9.76904,-4.270859 0.93577,-1.373371 0.36379,6.470124 3.64366,2.055594 1.24718,-2.240993 7.64268,1.668301 4.54199,0.815848 6.9832,0.429281 1.34276,-7.526456 1.24626,-7.26731 -2.31886,-3.49485 -2.78044,-7.961581 -6.86972,-6.899601 -0.47956,0.663074 -5.535449,9.408554 -4.42573,6.518732 -3.586184,6.052857 -7.927838,-5.86566 -7.935513,-3.961821 0.149642,3.094036 -9.50981,5.286207 -3.516848,2.265722 4.00622,-2.014918 5.638129,-6.045661 9.627536,-6.115155 5.932445,0.264596 -4.68455,1.821082 -0.969024,2.256386 3.143399,0.373322 -0.05433,8.450132 -2.263804,3.635987 -2.86411,-0.773118 2.432553,6.858736 4.937683,0.738798 1.82443,-3.361884 -0.0651,-5.438168 3.02379,-4.452014 -0.3827,-10.117183 1.18769,2.207683 7.01816,-3.551442 4.96673,-3.233598 -0.81849,3.065912 -0.0722,3.432842 1.58365,6.134296 2.83165,-4.160542 4.23277,-0.123998 1.49927,2.039893 -1.43978,8.236967 -0.25998,1.642006 -4.09034,2.929977 -2.59173,2.547285 -0.0385,8.367905 1.84956,1.498508 -0.14325,4.946606 -2.1515,4.91238 z M 97.789653,67.372031 c -1.453475,-2.8663 -1.802617,1.208781 0,0 z m -1.465044,-2.367285 c 2.850814,-2.781918 -5.119221,0.414281 0,0 z m -0.189951,-2.812464 c 0.299062,-1.374663 -1.258451,0.741425 0,0 z m 13.297802,-0.167354 c -0.28884,-0.59565 -0.37468,0.713232 0,0 z m 26.18738,15.18119 c 0.30468,-0.522032 0.30468,0.522023 0,0 z m -43.495817,-0.03209 c -0.657718,-0.654707 0.911115,-0.391727 0,0 z m -8.374031,-0.359975 c -1.434678,-1.977963 0.853325,-0.419757 0,0 z m 46.212758,0.03619 c -0.25405,-0.837718 0.32452,-0.122065 0,0 z m 5.81802,-0.544458 c -0.0681,-2.390319 -1.07393,-0.555418 -4e-5,0 z m 0.44107,-2.472948 c -0.55434,-3.819195 1.68422,0.689745 2.09489,-1.64714 -0.70057,-0.156487 -1.07548,0.801088 -2.09489,1.64714 z m -5.98851,-1.571938 c -0.51768,-3.543809 2.08157,-0.760112 0,0 z m -32.469851,-2.82858 c 0.68545,-0.480448 0.06229,0.614885 0,0 z m 5.546331,-0.482535 c -0.30611,-1.335501 0.86461,-0.05476 0,0 z m 27.43195,-1.21104 c -0.79136,-2.240703 1.58779,-0.362379 0,0 z m 0.16648,-1.443987 c 0.16223,-0.299344 0.0501,0.484563 0,0 z m 0.11616,-0.855096 c -0.21367,-1.000879 0.79704,0.0086 0,0 z m -30.35857,-0.428053 c 0.0414,-0.352282 0.64348,0.272562 0,0 z m 15.40663,-0.852307 c 0.16223,-0.299327 0.0501,0.484563 0,0 z m 15.005,-0.143841 c 1.45968,-6.344097 2.06534,-6.090897 0,0 z M 104.6682,63.727265 c 0.78428,-0.43811 0.0729,0.4735 0,0 z m 38.55772,0.0026 c 0.75603,-1.484706 0.3371,0.748193 0,0 z m -27.23805,-0.457593 c -0.0651,-3.23739 -0.0569,-0.955616 0,0 z m 27.61523,-0.256845 c -0.33455,-1.553303 1.58839,-0.211034 0,0 z m -28.76137,-1.269831 c -1.62292,-1.554184 1.1047,0.08646 0,0 z M 93.279148,60.937587 c -0.824088,-1.14922 1.674169,0.567115 0,0 z M 108.10252,60.46413 c -4.65976,-2.953532 2.23291,-0.766512 0,0 z m 36.63458,0.01018 c -0.63685,-0.988233 1.89396,0.68746 0,0 z m -29.44439,-0.704066 c 0.0258,-0.528508 0.41347,0.700979 0,0 z m 15.26949,0.01532 c 0.26676,-0.589721 0.0973,0.593665 0,0 z M 87.471397,58.764206 c 0.252652,-0.996045 0.732877,-0.03405 0,0 z m 2.179995,-2.722348 c 1.583036,-1.190565 1.69942,-0.0994 0,0 z m 41.645958,-0.350836 c 0.26729,-0.335923 1.34268,0.344444 0,0 z"
       style="fill:#000000;stroke-width:0.264583"
       id="path1" /><g
       id="p-3"
       style="fill:none;stroke-linecap:round;stroke-linejoin:round"
       transform="translate(-142.8083,-56.035847)"><path
         d="m 225.8,272.92 h 27.3 27.3 c 3.56,0 7.057,-0.937 10.14,-2.717 3.083,-1.78 5.643,-4.34 7.423,-7.423 1.78,-3.083 2.717,-6.58 2.717,-10.14 v -139.6 c 0,-3.56 -0.937,-7.057 -2.717,-10.14 -1.78,-3.083 -4.34,-5.643 -7.423,-7.423 -3.083,-1.78 -6.58,-2.717 -10.14,-2.717 h -54.6 c -3.56,0 -7.057,0.937 -10.14,2.717 -3.083,1.78 -5.643,4.34 -7.423,7.423 -1.78,3.083 -2.717,6.58 -2.717,10.14 v 139.6 c 0,3.56 0.937,7.057 2.717,10.14 1.78,3.083 4.34,5.643 7.423,7.423 3.083,1.78 6.58,2.717 10.14,2.717 z"
         stroke="#000000"
         stroke-width="0.16"
         id="path4" /></g><g
       id="text1"
       style="font-size:16.9333px;font-family:Sans;-inkscape-font-specification:'Sans, Normal ';text-align:center;text-anchor:middle;fill:#1a1a1a;stroke:#000000;stroke-width:0.4;stroke-linejoin:round"
       aria-label="Semper&#10;ubi&#10;sub&#10;ubi"
       transform="rotate(180,-86.163719,125.42713)"><path
         style="font-style:italic;font-weight:300;font-family:'URW Bookman';-inkscape-font-specification:'URW Bookman Light Italic'"
         d="m -107.10176,86.170426 h -0.54186 l -0.32173,0.626532 c -0.98214,-0.609599 -1.81187,-0.846665 -2.96333,-0.846665 -2.60773,0 -4.65666,1.507064 -4.65666,3.43746 0,0.880532 0.508,1.676397 1.35467,2.099729 0.62653,0.321733 1.20226,0.507999 2.79399,0.931332 1.54093,0.406399 1.84573,0.507999 2.31986,0.761998 0.44027,0.270933 0.64347,0.609599 0.64347,1.134531 0,1.540931 -1.59173,2.810928 -3.5052,2.810928 -2.03199,0 -3.57292,-1.320797 -4.21639,-3.606793 h -0.6604 l 0.37254,4.182525 h 0.6096 l 0.47413,-0.846665 c 0.99906,0.745066 2.04893,1.066798 3.45439,1.066798 2.91253,0 5.28319,-1.862663 5.28319,-4.131725 0,-0.880531 -0.37253,-1.59173 -1.03293,-1.998129 -0.6604,-0.389466 -0.6604,-0.389466 -3.06493,-1.032932 -1.87959,-0.524932 -1.87959,-0.524932 -2.26906,-0.728131 -0.44027,-0.220133 -0.74507,-0.694266 -0.74507,-1.134532 0,-1.23613 1.30387,-2.235195 2.8956,-2.235195 1.016,0 1.99813,0.406399 2.65853,1.100664 0.37253,0.389466 0.59266,0.761999 1.04986,1.710264 h 0.59267 z m 8.635986,9.601181 c -1.473197,0.829732 -2.184396,1.066798 -3.217326,1.066798 -1.524,0 -2.31986,-0.761998 -2.31986,-2.218262 0,-0.2032 0.0169,-0.355599 0.0847,-0.609599 1.71027,-0.1016 2.7432,-0.237066 3.82693,-0.507999 1.845729,-0.474132 2.87866,-1.320797 2.87866,-2.353729 0,-1.049864 -1.185331,-1.828796 -2.777061,-1.828796 -3.081859,0 -5.858919,2.539995 -5.858919,5.367856 0,1.811863 1.55786,3.166527 3.65759,3.166527 1.33773,0 2.777061,-0.558799 4.165592,-1.625597 z m -5.333986,-2.387595 c 0.33866,-1.083731 0.62653,-1.64253 1.18533,-2.285996 0.69426,-0.778931 1.43933,-1.151464 2.28599,-1.151464 0.863601,0 1.4732,0.507999 1.4732,1.219198 0,0.677332 -0.524932,1.269997 -1.43933,1.64253 -0.79587,0.321732 -2.37066,0.575732 -3.50519,0.575732 z m 7.535331,4.317991 h 1.557864 l 1.185331,-6.553187 c 0.812798,-0.626532 1.811863,-1.032931 2.506128,-1.032931 0.745066,0 1.151465,0.372533 1.151465,1.032931 0,0.237067 -0.03387,0.474133 -0.135467,1.066798 l -0.999064,5.486389 h 1.557863 l 1.185331,-6.553187 c 0.863599,-0.643465 1.777997,-1.032931 2.455329,-1.032931 0.745065,0 1.202264,0.406399 1.202264,1.066798 0,0.220133 -0.01693,0.355599 -0.1016,0.812798 l -0.592665,3.234261 c -0.0508,0.304799 -0.1016,0.778931 -0.1016,0.948264 0,0.982132 0.643465,1.676397 1.557864,1.676397 0.761998,0 1.54093,-0.338666 2.150529,-0.965198 l -0.3048,-0.423332 c -0.406399,0.372532 -0.677332,0.507999 -0.999064,0.507999 -0.507999,0 -0.829732,-0.338666 -0.829732,-0.880532 0,-0.220133 0.0508,-0.643465 0.135466,-1.134531 l 0.575732,-3.098794 c 0.06773,-0.440266 0.1016,-0.694265 0.1016,-0.914398 0,-1.015998 -0.795865,-1.625597 -2.116662,-1.625597 -1.100665,0 -2.082796,0.372533 -3.183461,1.219198 -0.270932,-0.812799 -0.948264,-1.219198 -2.065862,-1.219198 -0.965198,0 -1.811863,0.304799 -2.997194,1.049865 l 0.152399,-0.897465 H -93.8599 c -0.965198,0.220133 -1.219198,0.270932 -2.370662,0.372532 l -0.08467,0.491066 0.2032,0.03387 c 0.728132,0.118533 0.982131,0.355599 0.982131,0.846665 0,0.169333 -0.01693,0.270932 -0.03387,0.423332 z m 18.101692,-8.229583 h -0.643465 c -0.965198,0.220133 -1.236131,0.270932 -2.370662,0.372532 l -0.08467,0.491066 0.186266,0.03387 c 0.745065,0.135466 0.999065,0.338666 0.999065,0.846665 0,0.118533 -0.01693,0.270932 -0.03387,0.423332 l -1.439331,7.873985 c -0.152399,0.81279 -0.524932,1.15146 -1.405463,1.25306 l -0.287867,0.0339 -0.08467,0.49106 h 4.470391 l 0.08467,-0.49106 -0.254,-0.0339 c -0.694265,-0.0847 -0.999065,-0.33867 -0.999065,-0.812795 0,-0.135466 0.01693,-0.338666 0.03387,-0.440265 l 0.491066,-2.743195 c 0.575732,0.694265 1.456264,1.083731 2.421462,1.083731 2.455328,0 4.656657,-2.573861 4.656657,-5.469456 0,-1.845729 -1.100664,-3.064927 -2.743194,-3.064927 -1.422398,0 -2.743195,0.931331 -3.403594,2.404529 z m -1.202264,6.62092 c 0.694265,-3.064927 0.694265,-3.064927 1.236131,-4.063992 0.626532,-1.151464 1.69333,-1.913463 2.658528,-1.913463 0.880532,0 1.473197,0.745065 1.473197,1.84573 0,1.269997 -0.457199,2.810928 -1.100664,3.708392 -0.643466,0.914399 -1.456264,1.388531 -2.336796,1.388531 -0.812798,0 -1.49013,-0.338666 -1.930396,-0.965198 z m 15.087575,-0.321733 c -1.473197,0.829732 -2.184396,1.066798 -3.217327,1.066798 -1.523997,0 -2.319862,-0.761998 -2.319862,-2.218262 0,-0.2032 0.01693,-0.355599 0.08467,-0.609599 1.710264,-0.1016 2.743195,-0.237066 3.826926,-0.507999 1.84573,-0.474132 2.878661,-1.320797 2.878661,-2.353729 0,-1.049864 -1.185331,-1.828796 -2.777061,-1.828796 -3.081861,0 -5.858922,2.539995 -5.858922,5.367856 0,1.811863 1.557864,3.166527 3.657593,3.166527 1.337731,0 2.777061,-0.558799 4.165592,-1.625597 z m -5.33399,-2.387595 c 0.338666,-1.083731 0.626533,-1.64253 1.185331,-2.285996 0.694266,-0.778931 1.439331,-1.151464 2.285996,-1.151464 0.863598,0 1.473197,0.507999 1.473197,1.219198 0,0.677332 -0.524932,1.269997 -1.43933,1.64253 -0.795866,0.321732 -2.370662,0.575732 -3.505194,0.575732 z m 10.583328,-3.911592 h -0.643465 c -0.965198,0.220133 -1.219198,0.270932 -2.370662,0.372532 l -0.08467,0.491066 0.2032,0.03387 c 0.728132,0.118533 0.982131,0.355599 0.982131,0.846665 0,0.169333 -0.01693,0.270932 -0.03387,0.423332 l -1.100665,6.062121 h 1.557864 l 0.761998,-4.250258 c 0.169333,-0.914398 0.372533,-1.59173 0.592666,-1.981196 0.321732,-0.558799 0.761998,-0.863598 1.219197,-0.863598 0.169333,0 0.254,0.03387 0.626532,0.237066 0.321733,0.169333 0.474133,0.220133 0.745066,0.220133 0.643465,0 1.100664,-0.372533 1.100664,-0.914398 0,-0.524933 -0.406399,-0.829732 -1.083731,-0.829732 -0.914398,0 -1.74413,0.423332 -2.692395,1.371597 z"
         id="path10" /><path
         style="font-style:italic;font-weight:300;font-family:'URW Bookman';-inkscape-font-specification:'URW Bookman Light Italic'"
         d="m -89.78746,111.82226 h -1.557864 l -1.117598,6.14679 c -1.371597,0.99906 -2.184395,1.35466 -3.115727,1.35466 -0.643465,0 -1.032931,-0.38946 -1.032931,-1.03293 0,-0.16933 0.01693,-0.254 0.08467,-0.6604 l 1.049865,-5.80812 h -0.643465 c -0.965198,0.22014 -1.219198,0.27093 -2.370662,0.37253 l -0.08467,0.49107 0.2032,0.0339 c 0.728132,0.11853 0.982131,0.3556 0.982131,0.8636 0,0.16933 0,0.25399 -0.03387,0.40639 l -0.660399,3.62373 c -0.06773,0.38947 -0.1016,0.72813 -0.1016,1.016 0,0.99906 0.694265,1.5748 1.89653,1.5748 0.829731,0 1.523997,-0.18627 2.353728,-0.62654 0.592666,-0.32173 1.049865,-0.64346 1.354664,-0.93133 0.135467,0.98213 0.778932,1.55787 1.74413,1.55787 0.846665,0 1.676397,-0.44027 2.387596,-1.27 l -0.389466,-0.3556 c -0.338666,0.44026 -0.829732,0.74506 -1.219198,0.74506 -0.491066,0 -0.863598,-0.42333 -0.863598,-1.01599 0,-0.1524 0,-0.1524 0.135466,-0.94827 z m 5.46947,-3.87772 h -0.694265 c -0.778932,0.32173 -1.303865,0.44026 -2.489196,0.5588 l -0.08467,0.49106 0.253999,0.0339 c 0.812799,0.1016 1.066798,0.32173 1.066798,0.8636 0,0.11853 -0.01693,0.254 -0.03387,0.38946 l -1.777997,9.77052 h 1.083731 l 0.660399,-0.99907 c 0.575732,0.7112 1.574797,1.15147 2.607728,1.15147 2.472262,0 4.673591,-2.52307 4.673591,-5.38479 0,-1.89653 -1.134531,-3.1496 -2.844794,-3.1496 -1.388531,0 -2.726262,0.8636 -3.505193,2.26906 z m -1.89653,10.48171 c 0.3048,-1.6256 0.491066,-2.35373 0.795865,-3.09879 0.728132,-1.81187 1.930397,-2.86173 3.251194,-2.86173 0.897465,0 1.473197,0.74506 1.473197,1.86266 0,1.016 -0.287866,2.15053 -0.778932,3.11573 -0.626532,1.2192 -1.64253,1.96426 -2.743194,1.96426 -0.795865,0 -1.405464,-0.3048 -1.99813,-0.98213 z m 12.361315,0.16933 c -0.524932,0.52493 -0.863598,0.72813 -1.202264,0.72813 -0.541866,0 -0.897465,-0.4064 -0.897465,-0.99906 0,-0.16933 0.01693,-0.28787 0.03387,-0.44027 l 1.100665,-6.06212 h -0.643466 c -0.965198,0.22014 -1.219197,0.27093 -2.370662,0.37253 l -0.08467,0.49107 0.203199,0.0339 c 0.728132,0.11853 0.982132,0.3556 0.982132,0.84666 0,0.16934 0,0.27093 -0.03387,0.42333 l -0.711198,3.89466 c -0.03387,0.18627 -0.0508,0.4064 -0.0508,0.59267 0,1.0668 0.609599,1.7272 1.625597,1.7272 0.863598,0 1.676396,-0.42334 2.438395,-1.25307 z m -1.015998,-9.82131 c -0.609599,0 -1.202264,0.59266 -1.202264,1.20226 0,0.508 0.355599,0.88053 0.829731,0.88053 0.660399,0 1.253064,-0.59266 1.253064,-1.26999 0,-0.47414 -0.355599,-0.8128 -0.880531,-0.8128 z"
         id="path11" /><path
         style="font-style:italic;font-weight:300;font-family:'URW Bookman';-inkscape-font-specification:'URW Bookman Light Italic'"
         d="m -96.442249,134.0197 c -2.099729,0 -3.606791,1.0668 -3.606791,2.52307 0,0.64346 0.389464,1.23613 0.999063,1.55786 0.491066,0.27093 1.134531,0.508 2.387595,0.89747 1.100665,0.35559 1.490131,0.69426 1.490131,1.32079 0,0.9144 -0.931332,1.60867 -2.15053,1.60867 -0.880531,0 -1.405463,-0.27094 -1.845729,-0.94827 -0.491066,-0.77893 -0.761999,-0.98213 -1.27,-0.98213 -0.42333,0 -0.72813,0.32173 -0.72813,0.762 0,0.9144 1.811863,1.79493 3.69146,1.79493 2.302929,0 4.030125,-1.2192 4.030125,-2.86173 0,-0.52493 -0.253999,-1.03293 -0.660399,-1.3208 -0.389465,-0.28786 -0.914398,-0.508 -1.998129,-0.82973 -1.134531,-0.3556 -1.422397,-0.4572 -1.659463,-0.6096 -0.372533,-0.22013 -0.558799,-0.5588 -0.558799,-0.94826 0,-0.79587 0.694265,-1.33773 1.710263,-1.33773 0.728132,0 1.422397,0.3048 1.727197,0.74506 0.507999,0.762 0.643465,0.8636 1.100664,0.8636 0.457199,0 0.778932,-0.28787 0.778932,-0.7112 0,-0.79586 -1.659463,-1.524 -3.43746,-1.524 z m 13.597455,0.1524 h -1.557863 l -1.117598,6.14679 c -1.371598,0.99907 -2.184396,1.35467 -3.115727,1.35467 -0.643466,0 -1.032932,-0.38947 -1.032932,-1.03293 0,-0.16934 0.01693,-0.254 0.08467,-0.6604 l 1.049864,-5.80813 h -0.643465 c -0.965198,0.22014 -1.219198,0.27094 -2.370662,0.37254 l -0.08467,0.49106 0.2032,0.0339 c 0.728132,0.11853 0.982131,0.3556 0.982131,0.8636 0,0.16933 0,0.254 -0.03387,0.4064 l -0.660399,3.62372 c -0.06773,0.38947 -0.1016,0.72814 -0.1016,1.016 0,0.99907 0.694266,1.5748 1.89653,1.5748 0.829732,0 1.523997,-0.18627 2.353729,-0.62653 0.592665,-0.32174 1.049864,-0.64347 1.354664,-0.93134 0.135466,0.98214 0.778931,1.55787 1.74413,1.55787 0.846665,0 1.676396,-0.44027 2.387595,-1.27 l -0.389466,-0.3556 c -0.338666,0.44027 -0.829732,0.74507 -1.219198,0.74507 -0.491065,0 -0.863598,-0.42334 -0.863598,-1.016 0,-0.1524 0,-0.1524 0.135466,-0.94827 z m 5.469471,-3.87772 h -0.694265 c -0.778932,0.32173 -1.303864,0.44026 -2.489195,0.5588 l -0.08467,0.49106 0.254,0.0339 c 0.812798,0.1016 1.066798,0.32173 1.066798,0.8636 0,0.11853 -0.01693,0.254 -0.03387,0.38946 l -1.777997,9.77052 h 1.083732 l 0.660398,-0.99907 c 0.575733,0.7112 1.574797,1.15147 2.607729,1.15147 2.472261,0 4.67359,-2.52306 4.67359,-5.38479 0,-1.89653 -1.134531,-3.1496 -2.844794,-3.1496 -1.388531,0 -2.726261,0.8636 -3.505193,2.26907 z m -1.89653,10.48171 c 0.3048,-1.6256 0.491066,-2.35373 0.795866,-3.09879 0.728131,-1.81187 1.930396,-2.86173 3.251193,-2.86173 0.897465,0 1.473197,0.74507 1.473197,1.86266 0,1.016 -0.287866,2.15053 -0.778932,3.11573 -0.626532,1.2192 -1.64253,1.96426 -2.743194,1.96426 -0.795865,0 -1.405464,-0.3048 -1.99813,-0.98213 z"
         id="path12" /><path
         style="font-style:italic;font-weight:300;font-family:'URW Bookman';-inkscape-font-specification:'URW Bookman Light Italic'"
         d="m -89.78746,156.52195 h -1.557864 l -1.117598,6.14678 c -1.371597,0.99907 -2.184395,1.35467 -3.115727,1.35467 -0.643465,0 -1.032931,-0.38947 -1.032931,-1.03293 0,-0.16934 0.01693,-0.254 0.08467,-0.6604 l 1.049865,-5.80812 h -0.643465 c -0.965198,0.22013 -1.219198,0.27093 -2.370662,0.37253 l -0.08467,0.49107 0.2032,0.0339 c 0.728132,0.11854 0.982131,0.3556 0.982131,0.8636 0,0.16933 0,0.254 -0.03387,0.4064 l -0.660399,3.62373 c -0.06773,0.38946 -0.1016,0.72813 -0.1016,1.01599 0,0.99907 0.694265,1.5748 1.89653,1.5748 0.829731,0 1.523997,-0.18627 2.353728,-0.62653 0.592666,-0.32173 1.049865,-0.64347 1.354664,-0.93133 0.135467,0.98213 0.778932,1.55786 1.74413,1.55786 0.846665,0 1.676397,-0.44027 2.387596,-1.27 l -0.389466,-0.3556 c -0.338666,0.44027 -0.829732,0.74507 -1.219198,0.74507 -0.491066,0 -0.863598,-0.42333 -0.863598,-1.016 0,-0.1524 0,-0.1524 0.135466,-0.94826 z m 5.46947,-3.87773 h -0.694265 c -0.778932,0.32173 -1.303865,0.44027 -2.489196,0.5588 l -0.08467,0.49107 0.253999,0.0339 c 0.812799,0.1016 1.066798,0.32174 1.066798,0.8636 0,0.11853 -0.01693,0.254 -0.03387,0.38947 l -1.777997,9.77051 h 1.083731 l 0.660399,-0.99906 c 0.575732,0.71119 1.574797,1.15146 2.607728,1.15146 2.472262,0 4.673591,-2.52306 4.673591,-5.38479 0,-1.89653 -1.134531,-3.14959 -2.844794,-3.14959 -1.388531,0 -2.726262,0.8636 -3.505193,2.26906 z m -1.89653,10.48171 c 0.3048,-1.62559 0.491066,-2.35372 0.795865,-3.09879 0.728132,-1.81186 1.930397,-2.86173 3.251194,-2.86173 0.897465,0 1.473197,0.74507 1.473197,1.86267 0,1.01599 -0.287866,2.15052 -0.778932,3.11572 -0.626532,1.2192 -1.64253,1.96427 -2.743194,1.96427 -0.795865,0 -1.405464,-0.3048 -1.99813,-0.98214 z m 12.361315,0.16934 c -0.524932,0.52493 -0.863598,0.72813 -1.202264,0.72813 -0.541866,0 -0.897465,-0.4064 -0.897465,-0.99907 0,-0.16933 0.01693,-0.28786 0.03387,-0.44026 l 1.100665,-6.06212 h -0.643466 c -0.965198,0.22013 -1.219197,0.27093 -2.370662,0.37253 l -0.08467,0.49107 0.203199,0.0339 c 0.728132,0.11854 0.982132,0.3556 0.982132,0.84667 0,0.16933 0,0.27093 -0.03387,0.42333 l -0.711198,3.89466 c -0.03387,0.18626 -0.0508,0.4064 -0.0508,0.59266 0,1.0668 0.609599,1.7272 1.625597,1.7272 0.863598,0 1.676396,-0.42333 2.438395,-1.25306 z m -1.015998,-9.82132 c -0.609599,0 -1.202264,0.59267 -1.202264,1.20227 0,0.508 0.355599,0.88053 0.829731,0.88053 0.660399,0 1.253064,-0.59267 1.253064,-1.27 0,-0.47413 -0.355599,-0.8128 -0.880531,-0.8128 z"
         id="path13" /></g><text
       xml:space="preserve"
       transform="matrix(0.26458333,0,0,0.26458333,-138.6045,-52.724167)"
       id="text4"
       style="font-size:18.6667px;font-family:Sans;-inkscape-font-specification:'Sans, Normal ';text-align:center;writing-mode:lr-tb;direction:ltr;white-space:pre;shape-inside:url(#rect4);display:inline;fill:#1a1a1a;stroke:#000000;stroke-width:1.51181;stroke-linejoin:round" /><text
       xml:space="preserve"
       style="font-style:italic;font-variant:normal;font-weight:600;font-stretch:normal;font-size:16.9333px;font-family:'URW Bookman';-inkscape-font-specification:'URW Bookman Semi-Bold Italic';text-align:center;writing-mode:lr-tb;direction:ltr;text-anchor:middle;fill:none;stroke:none;stroke-width:0.132;stroke-linejoin:round;stroke-dasharray:none"
       x="72.035309"
       y="241.64853"
       id="text9"><tspan
         sodipodi:role="line"
         id="tspan9"
         style="stroke-width:0.132"
         x="72.035309"
         y="241.64853" /></text><text
       xml:space="preserve"
       style="font-style:italic;font-variant:normal;font-weight:600;font-stretch:normal;font-size:16.9333px;font-family:'URW Bookman';-inkscape-font-specification:'URW Bookman Semi-Bold Italic';text-align:center;writing-mode:lr-tb;direction:ltr;text-anchor:middle;fill:none;stroke:none;stroke-width:0.132;stroke-linejoin:round;stroke-dasharray:none"
       x="199.06964"
       y="65.348763"
       id="text10"><tspan
         sodipodi:role="line"
         id="tspan10"
         style="stroke-width:0.132"
         x="199.06964"
         y="65.348763" /></text></g></svg>
