<?xml version="1.0" encoding="UTF-8" standalone="no"?>
<!-- Created with Inkscape (http://www.inkscape.org/) -->

<svg
   width="39.158283mm"
   height="39.158283mm"
   viewBox="0 0 39.158283 39.158283"
   version="1.1"
   id="svg1"
   inkscape:version="1.4 (e7c3feb100, 2024-10-09)"
   sodipodi:docname="qr-code.svg"
   xmlns:inkscape="http://www.inkscape.org/namespaces/inkscape"
   xmlns:sodipodi="http://sodipodi.sourceforge.net/DTD/sodipodi-0.dtd"
   xmlns="http://www.w3.org/2000/svg"
   xmlns:svg="http://www.w3.org/2000/svg">
  <sodipodi:namedview
     id="namedview1"
     pagecolor="#ffffff"
     bordercolor="#000000"
     borderopacity="0.25"
     inkscape:showpageshadow="2"
     inkscape:pageopacity="0.0"
     inkscape:pagecheckerboard="0"
     inkscape:deskcolor="#d1d1d1"
     inkscape:document-units="mm"
     inkscape:zoom="0.77415123"
     inkscape:cx="-0.64586863"
     inkscape:cy="0.64586863"
     inkscape:window-width="1896"
     inkscape:window-height="1032"
     inkscape:window-x="0"
     inkscape:window-y="0"
     inkscape:window-maximized="1"
     inkscape:current-layer="svg1" />
  <defs
     id="defs1" />
  <g
     inkscape:label="Layer 1"
     inkscape:groupmode="layer"
     id="layer1"
     transform="translate(-104.92411,-148.67084)" />
  <g
     inkscape:label="QR Code: https://github.com/caryfitz/semper-ubi-sub-ubi\n"
     transform="matrix(0.264583 0 0 0.264583 -0.170886 0.170886)"
     id="g11">
    <rect
       x="0"
       y="0"
       width="148.0"
       height="148.0"
       style="stroke:none;fill:white"
       id="rect10" />
    <g
       style="stroke:none;fill:black"
       id="g10">
      <path
         d="M 127.6 132 L 124.4 132 C 124.179 132 124 131.821 124 131.6 L 124 124.4 C 124 124.179 123.821 124 123.6 124 L 120.4 124 C 120.179 124 120 124.179 120 124.4 L 120 131.6 C 120 131.821 119.821 132 119.6 132 L 96.4 132 C 96.1791 132 96 131.821 96 131.6 L 96 124.4 C 96 124.179 95.8209 124 95.6 124 L 92 124 L 92 120.4 C 92 120.179 92.1791 120 92.4 120 L 99.6 120 C 99.8209 120 100 119.821 100 119.6 L 100 116.4 C 100 116.179 99.8209 116 99.6 116 L 92.4 116 C 92.1791 116 92 115.821 92 115.6 L 92 112.4 C 92 112.179 91.8209 112 91.6 112 L 88.4 112 C 88.1791 112 88 112.179 88 112.4 L 88 115.6 C 88 115.821 87.8209 116 87.6 116 L 84 116 L 84 108.4 C 84 108.179 84.1791 108 84.4 108 L 87.6 108 C 87.8209 108 88 107.821 88 107.6 L 88 104.4 C 88 104.179 87.8209 104 87.6 104 L 80.4 104 C 80.1791 104 80 104.179 80 104.4 L 80 115.6 C 80 115.821 80.1791 116 80.4 116 L 84 116 L 84 119.6 C 84 119.821 83.8209 120 83.6 120 L 80.4 120 C 80.1791 120 80 120.179 80 120.4 L 80 127.6 C 80 127.821 79.8209 128 79.6 128 L 72.4 128 C 72.1791 128 72 127.821 72 127.6 L 72 112.4 C 72 112.179 72.1791 112 72.4 112 L 75.6 112 C 75.8209 112 76 111.821 76 111.6 L 76 104.4 C 76 104.179 75.8209 104 75.6 104 L 72.4 104 C 72.1791 104 72 104.179 72 104.4 L 72 107.6 C 72 107.821 71.8209 108 71.6 108 L 68.4 108 C 68.1791 108 68 107.821 68 107.6 L 68 100 L 79.6 100 C 79.8209 100 80 99.8209 80 99.6 L 80 96.4 C 80 96.1791 79.8209 96 79.6 96 L 72.4 96 C 72.1791 96 72 95.8209 72 95.6 L 72 88 L 75.6 88 C 75.8209 88 76 87.8209 76 87.6 L 76 84.4 C 76 84.1791 76.1791 84 76.4 84 L 83.6 84 C 83.8209 84 84 83.8209 84 83.6 L 84 72 L 91.6 72 C 91.8209 72 92 72.1791 92 72.4 L 92 76 L 88.4 76 C 88.1791 76 88 76.1791 88 76.4 L 88 87.6 C 88 87.8209 87.8209 88 87.6 88 L 84.4 88 C 84.1791 88 84 88.1791 84 88.4 L 84 91.6 C 84 91.8209 84.1791 92 84.4 92 L 87.6 92 C 87.8209 92 88 92.1791 88 92.4 L 88 95.6 C 88 95.8209 88.1791 96 88.4 96 L 91.6 96 C 91.8209 96 92 96.1791 92 96.4 L 92 99.6 C 92 99.8209 92.1791 100 92.4 100 L 95.6 100 C 95.8209 100 96 99.8209 96 99.6 L 96 80.4 C 96 80.1791 95.8209 80 95.6 80 L 92.4 80 C 92.1791 80 92 79.8209 92 79.6 L 92 76 L 95.6 76 C 95.8209 76 96 75.8209 96 75.6 L 96 72.4 C 96 72.1791 96.1791 72 96.4 72 L 103.6 72 C 103.821 72 104 71.8209 104 71.6 L 104 68 L 123.6 68 C 123.821 68 124 67.8209 124 67.6 L 124 60.4 C 124 60.1791 124.179 60 124.4 60 L 127.6 60 C 127.821 60 128 59.8209 128 59.6 L 128 56.4 C 128 56.1791 127.821 56 127.6 56 L 112.4 56 C 112.179 56 112 56.1791 112 56.4 L 112 59.6 C 112 59.8209 112.179 60 112.4 60 L 119.6 60 C 119.821 60 120 60.1791 120 60.4 L 120 63.6 C 120 63.8209 119.821 64 119.6 64 L 104 64 L 104 56.4 C 104 56.1791 103.821 56 103.6 56 L 100 56 L 100 52 L 107.6 52 C 107.821 52 108 51.8209 108 51.6 L 108 48.4 C 108 48.1791 108.179 48 108.4 48 L 111.6 48 C 111.821 48 112 48.1791 112 48.4 L 112 51.6 C 112 51.8209 112.179 52 112.4 52 L 115.6 52 C 115.821 52 116 51.8209 116 51.6 L 116 48.4 C 116 48.1791 116.179 48 116.4 48 L 131.6 48 C 131.821 48 132 48.1791 132 48.4 L 132 63.6 C 132 63.8209 131.821 64 131.6 64 L 128.4 64 C 128.179 64 128 64.1791 128 64.4 L 128 67.6 C 128 67.8209 128.179 68 128.4 68 L 131.6 68 C 131.821 68 132 68.1791 132 68.4 L 132 79.6 C 132 79.8209 131.821 80 131.6 80 L 128.4 80 C 128.179 80 128 80.1791 128 80.4 L 128 83.6 C 128 83.8209 128.179 84 128.4 84 L 131.6 84 C 131.821 84 132 84.1791 132 84.4 L 132 107.6 C 132 107.821 131.821 108 131.6 108 L 128.4 108 C 128.179 108 128 107.821 128 107.6 L 128 96.4 C 128 96.1791 127.821 96 127.6 96 L 124.4 96 C 124.179 96 124 95.8209 124 95.6 L 124 92 L 127.6 92 C 127.821 92 128 91.8209 128 91.6 L 128 88.4 C 128 88.1791 127.821 88 127.6 88 L 124 88 L 124 76 L 127.6 76 C 127.821 76 128 75.8209 128 75.6 L 128 72.4 C 128 72.1791 127.821 72 127.6 72 L 124.4 72 C 124.179 72 124 72.1791 124 72.4 L 124 76 L 116.4 76 C 116.179 76 116 75.8209 116 75.6 L 116 72.4 C 116 72.1791 115.821 72 115.6 72 L 112.4 72 C 112.179 72 112 72.1791 112 72.4 L 112 75.6 C 112 75.8209 111.821 76 111.6 76 L 104.4 76 C 104.179 76 104 76.1791 104 76.4 L 104 79.6 C 104 79.8209 103.821 80 103.6 80 L 100.4 80 C 100.179 80 100 80.1791 100 80.4 L 100 91.6 C 100 91.8209 100.179 92 100.4 92 L 103.6 92 C 103.821 92 104 92.1791 104 92.4 L 104 95.6 C 104 95.8209 104.179 96 104.4 96 L 107.6 96 C 107.821 96 108 95.8209 108 95.6 L 108 92.4 C 108 92.1791 108.179 92 108.4 92 L 115.6 92 C 115.821 92 116 92.1791 116 92.4 L 116 95.6 C 116 95.8209 116.179 96 116.4 96 L 119.6 96 C 119.821 96 120 96.1791 120 96.4 L 120 99.6 C 120 99.8209 119.821 100 119.6 100 L 116.4 100 C 116.179 100 116 100.179 116 100.4 L 116 103.6 C 116 103.821 116.179 104 116.4 104 L 123.6 104 C 123.821 104 124 104.179 124 104.4 L 124 107.6 C 124 107.821 123.821 108 123.6 108 L 116.4 108 C 116.179 108 116 108.179 116 108.4 L 116 111.6 C 116 111.821 116.179 112 116.4 112 L 119.6 112 C 119.821 112 120 112.179 120 112.4 L 120 115.6 C 120 115.821 119.821 116 119.6 116 L 104.4 116 C 104.179 116 104 116.179 104 116.4 L 104 123.6 C 104 123.821 104.179 124 104.4 124 L 107.6 124 C 107.821 124 108 124.179 108 124.4 L 108 127.6 C 108 127.821 108.179 128 108.4 128 L 111.6 128 C 111.821 128 112 127.821 112 127.6 L 112 124.4 C 112 124.179 112.179 124 112.4 124 L 115.6 124 C 115.821 124 116 123.821 116 123.6 L 116 120.4 C 116 120.179 116.179 120 116.4 120 L 127.6 120 C 127.821 120 128 119.821 128 119.6 L 128 116.4 C 128 116.179 127.821 116 127.6 116 L 124.4 116 C 124.179 116 124 115.821 124 115.6 L 124 112.4 C 124 112.179 124.179 112 124.4 112 L 131.6 112 C 131.821 112 132 112.179 132 112.4 L 132 127.6 C 132 127.821 131.821 128 131.6 128 L 128.4 128 C 128.179 128 128 128.179 128 128.4 L 128 131.6 C 128 131.821 127.821 132 127.6 132 z M 87.6 132 L 84.4 132 C 84.1791 132 84 131.821 84 131.6 L 84 124.4 C 84 124.179 84.1791 124 84.4 124 L 92 124 L 92 127.6 C 92 127.821 91.8209 128 91.6 128 L 88.4 128 C 88.1791 128 88 128.179 88 128.4 L 88 131.6 C 88 131.821 87.8209 132 87.6 132 z M 55.6 132 L 48.4 132 C 48.1791 132 48 131.821 48 131.6 L 48 124.4 C 48 124.179 48.1791 124 48.4 124 L 51.6 124 C 51.8209 124 52 124.179 52 124.4 L 52 127.6 C 52 127.821 52.1791 128 52.4 128 L 55.6 128 C 55.8209 128 56 128.179 56 128.4 L 56 131.6 C 56 131.821 55.8209 132 55.6 132 z M 43.6 132 L 16.4 132 C 16.1791 132 16 131.821 16 131.6 L 16 104.4 C 16 104.179 16.1791 104 16.4 104 L 43.6 104 C 43.8209 104 44 104.179 44 104.4 L 44 131.6 C 44 131.821 43.8209 132 43.6 132 z M 67.6 128 L 60.4 128 C 60.1791 128 60 127.821 60 127.6 L 60 124.4 C 60 124.179 59.8209 124 59.6 124 L 56.4 124 C 56.1791 124 56 123.821 56 123.6 L 56 112.4 C 56 112.179 55.8209 112 55.6 112 L 52.4 112 C 52.1791 112 52 112.179 52 112.4 L 52 115.6 C 52 115.821 51.8209 116 51.6 116 L 48.4 116 C 48.1791 116 48 115.821 48 115.6 L 48 108.4 C 48 108.179 48.1791 108 48.4 108 L 55.6 108 C 55.8209 108 56 107.821 56 107.6 L 56 104.4 C 56 104.179 56.1791 104 56.4 104 L 59.6 104 C 59.8209 104 60 103.821 60 103.6 L 60 96.4 C 60 96.1791 59.8209 96 59.6 96 L 56 96 L 56 92.4 C 56 92.1791 56.1791 92 56.4 92 L 59.6 92 C 59.8209 92 60 91.8209 60 91.6 L 60 88.4 C 60 88.1791 60.1791 88 60.4 88 L 63.6 88 C 63.8209 88 64 87.8209 64 87.6 L 64 84.4 C 64 84.1791 63.8209 84 63.6 84 L 56 84 L 56 80.4 C 56 80.1791 56.1791 80 56.4 80 L 67.6 80 C 67.8209 80 68 80.1791 68 80.4 L 68 83.6 C 68 83.8209 68.1791 84 68.4 84 L 71.6 84 C 71.8209 84 72 84.1791 72 84.4 L 72 88 L 68.4 88 C 68.1791 88 68 88.1791 68 88.4 L 68 91.6 C 68 91.8209 67.8209 92 67.6 92 L 64.4 92 C 64.1791 92 64 92.1791 64 92.4 L 64 95.6 C 64 95.8209 64.1791 96 64.4 96 L 67.6 96 C 67.8209 96 68 96.1791 68 96.4 L 68 100 L 64.4 100 C 64.1791 100 64 100.179 64 100.4 L 64 107.6 C 64 107.821 63.8209 108 63.6 108 L 60.4 108 C 60.1791 108 60 108.179 60 108.4 L 60 115.6 C 60 115.821 60.1791 116 60.4 116 L 64 116 L 64 119.6 C 64 119.821 64.1791 120 64.4 120 L 67.6 120 C 67.8209 120 68 120.179 68 120.4 L 68 127.6 C 68 127.821 67.8209 128 67.6 128 z M 40 127.6 L 40 108.4 C 40 108.179 39.8209 108 39.6 108 L 20.4 108 C 20.1791 108 20 108.179 20 108.4 L 20 127.6 C 20 127.821 20.1791 128 20.4 128 L 39.6 128 C 39.8209 128 40 127.821 40 127.6 z M 35.6 124 L 24.4 124 C 24.1791 124 24 123.821 24 123.6 L 24 112.4 C 24 112.179 24.1791 112 24.4 112 L 35.6 112 C 35.8209 112 36 112.179 36 112.4 L 36 123.6 C 36 123.821 35.8209 124 35.6 124 z M 67.6 116 L 64 116 L 64 112.4 C 64 112.179 64.1791 112 64.4 112 L 67.6 112 C 67.8209 112 68 112.179 68 112.4 L 68 115.6 C 68 115.821 67.8209 116 67.6 116 z M 112 111.6 L 112 100.4 C 112 100.179 111.821 100 111.6 100 L 100.4 100 C 100.179 100 100 100.179 100 100.4 L 100 111.6 C 100 111.821 100.179 112 100.4 112 L 111.6 112 C 111.821 112 112 111.821 112 111.6 z M 107.6 108 L 104.4 108 C 104.179 108 104 107.821 104 107.6 L 104 104.4 C 104 104.179 104.179 104 104.4 104 L 107.6 104 C 107.821 104 108 104.179 108 104.4 L 108 107.6 C 108 107.821 107.821 108 107.6 108 z M 51.6 104 L 48.4 104 C 48.1791 104 48 103.821 48 103.6 L 48 100.4 C 48 100.179 47.8209 100 47.6 100 L 40.4 100 C 40.1791 100 40 99.8209 40 99.6 L 40 96.4 C 40 96.1791 40.1791 96 40.4 96 L 47.6 96 C 47.8209 96 48 95.8209 48 95.6 L 48 92 L 51.6 92 C 51.8209 92 52 92.1791 52 92.4 L 52 95.6 C 52 95.8209 52.1791 96 52.4 96 L 56 96 L 56 99.6 C 56 99.8209 55.8209 100 55.6 100 L 52.4 100 C 52.1791 100 52 100.179 52 100.4 L 52 103.6 C 52 103.821 51.8209 104 51.6 104 z M 35.6 100 L 32.4 100 C 32.1791 100 32 99.8209 32 99.6 L 32 96 L 35.6 96 C 35.8209 96 36 96.1791 36 96.4 L 36 99.6 C 36 99.8209 35.8209 100 35.6 100 z M 27.6 100 L 16.4 100 C 16.1791 100 16 99.8209 16 99.6 L 16 96.4 C 16 96.1791 16.1791 96 16.4 96 L 23.6 96 C 23.8209 96 24 95.8209 24 95.6 L 24 92.4 C 24 92.1791 24.1791 92 24.4 92 L 27.6 92 C 27.8209 92 28 91.8209 28 91.6 L 28 88 L 32 88 L 32 96 L 28.4 96 C 28.1791 96 28 96.1791 28 96.4 L 28 99.6 C 28 99.8209 27.8209 100 27.6 100 z M 123.6 92 L 120.4 92 C 120.179 92 120 91.8209 120 91.6 L 120 88 L 124 88 L 124 92 z M 47.6 92 L 36.4 92 C 36.1791 92 36 91.8209 36 91.6 L 36 88 L 47.6 88 C 47.8209 88 48 88.1791 48 88.4 L 48 92 z M 119.6 88 L 104.4 88 C 104.179 88 104 87.8209 104 87.6 L 104 84.4 C 104 84.1791 104.179 84 104.4 84 L 107.6 84 C 107.821 84 108 83.8209 108 83.6 L 108 80.4 C 108 80.1791 108.179 80 108.4 80 L 111.6 80 C 111.821 80 112 80.1791 112 80.4 L 112 83.6 C 112 83.8209 112.179 84 112.4 84 L 119.6 84 C 119.821 84 120 84.1791 120 84.4 L 120 88 z M 55.6 88 L 52.4 88 C 52.1791 88 52 87.8209 52 87.6 L 52 84.4 C 52 84.1791 52.1791 84 52.4 84 L 56 84 L 56 87.6 C 56 87.8209 55.8209 88 55.6 88 z M 35.6 88 L 32 88 L 32 84 L 36 84 L 36 88 z M 27.6 88 L 16.4 88 C 16.1791 88 16 87.8209 16 87.6 L 16 84.4 C 16 84.1791 16.1791 84 16.4 84 L 19.6 84 C 19.8209 84 20 83.8209 20 83.6 L 20 72 L 23.6 72 C 23.8209 72 24 72.1791 24 72.4 L 24 75.6 C 24 75.8209 24.1791 76 24.4 76 L 27.6 76 C 27.8209 76 28 76.1791 28 76.4 L 28 79.6 C 28 79.8209 28.1791 80 28.4 80 L 32 80 L 32 84 L 28.4 84 C 28.1791 84 28 84.1791 28 84.4 L 28 88 z M 43.6 84 L 36 84 L 36 80.4 C 36 80.1791 35.8209 80 35.6 80 L 32 80 L 32 72.4 C 32 72.1791 32.1791 72 32.4 72 L 47.6 72 C 47.8209 72 48 71.8209 48 71.6 L 48 64.4 C 48 64.1791 47.8209 64 47.6 64 L 44 64 L 44 60.4 C 44 60.1791 43.8209 60 43.6 60 L 40 60 L 40 56.4 C 40 56.1791 40.1791 56 40.4 56 L 43.6 56 C 43.8209 56 44 55.8209 44 55.6 L 44 52 L 47.6 52 C 47.8209 52 48 52.1791 48 52.4 L 48 55.6 C 48 55.8209 48.1791 56 48.4 56 L 59.6 56 C 59.8209 56 60 56.1791 60 56.4 L 60 59.6 C 60 59.8209 59.8209 60 59.6 60 L 56.4 60 C 56.1791 60 56 60.1791 56 60.4 L 56 63.6 C 56 63.8209 55.8209 64 55.6 64 L 52.4 64 C 52.1791 64 52 64.1791 52 64.4 L 52 67.6 C 52 67.8209 52.1791 68 52.4 68 L 60 68 L 60 71.6 C 60 71.8209 60.1791 72 60.4 72 L 64 72 L 64 75.6 C 64 75.8209 63.8209 76 63.6 76 L 56.4 76 C 56.1791 76 56 75.8209 56 75.6 L 56 72.4 C 56 72.1791 55.8209 72 55.6 72 L 52.4 72 C 52.1791 72 52 72.1791 52 72.4 L 52 75.6 C 52 75.8209 51.8209 76 51.6 76 L 48.4 76 C 48.1791 76 48 76.1791 48 76.4 L 48 79.6 C 48 79.8209 47.8209 80 47.6 80 L 44 80 L 44 76.4 C 44 76.1791 43.8209 76 43.6 76 L 40.4 76 C 40.1791 76 40 76.1791 40 76.4 L 40 79.6 C 40 79.8209 40.1791 80 40.4 80 L 44 80 L 44 83.6 C 44 83.8209 43.8209 84 43.6 84 z M 79.6 80 L 72.4 80 C 72.1791 80 72 79.8209 72 79.6 L 72 76 L 75.6 76 C 75.8209 76 76 75.8209 76 75.6 L 76 68.4 C 76 68.1791 76.1791 68 76.4 68 L 79.6 68 C 79.8209 68 80 67.8209 80 67.6 L 80 60.4 C 80 60.1791 79.8209 60 79.6 60 L 76.4 60 C 76.1791 60 76 60.1791 76 60.4 L 76 63.6 C 76 63.8209 75.8209 64 75.6 64 L 72.4 64 C 72.1791 64 72 63.8209 72 63.6 L 72 40.4 C 72 40.1791 71.8209 40 71.6 40 L 68 40 L 68 36 L 71.6 36 C 71.8209 36 72 35.8209 72 35.6 L 72 32.4 C 72 32.1791 71.8209 32 71.6 32 L 68.4 32 C 68.1791 32 68 32.1791 68 32.4 L 68 36 L 64.4 36 C 64.1791 36 64 35.8209 64 35.6 L 64 24.4 C 64 24.1791 63.8209 24 63.6 24 L 60.4 24 C 60.1791 24 60 23.8209 60 23.6 L 60 20.4 C 60 20.1791 60.1791 20 60.4 20 L 68 20 L 68 27.6 C 68 27.8209 68.1791 28 68.4 28 L 75.6 28 C 75.8209 28 76 27.8209 76 27.6 L 76 24 L 80 24 L 80 31.6 C 80 31.8209 80.1791 32 80.4 32 L 83.6 32 C 83.8209 32 84 32.1791 84 32.4 L 84 35.6 C 84 35.8209 84.1791 36 84.4 36 L 88 36 L 88 40 L 84.4 40 C 84.1791 40 84 40.1791 84 40.4 L 84 44 L 80 44 L 80 36.4 C 80 36.1791 79.8209 36 79.6 36 L 76.4 36 C 76.1791 36 76 36.1791 76 36.4 L 76 43.6 C 76 43.8209 76.1791 44 76.4 44 L 80 44 L 80 55.6 C 80 55.8209 80.1791 56 80.4 56 L 83.6 56 C 83.8209 56 84 55.8209 84 55.6 L 84 44 L 88 44 L 88 51.6 C 88 51.8209 88.1791 52 88.4 52 L 92 52 L 92 55.6 C 92 55.8209 91.8209 56 91.6 56 L 88.4 56 C 88.1791 56 88 56.1791 88 56.4 L 88 59.6 C 88 59.8209 88.1791 60 88.4 60 L 96 60 L 96 63.6 C 96 63.8209 96.1791 64 96.4 64 L 104 64 L 104 68 L 92.4 68 C 92.1791 68 92 67.8209 92 67.6 L 92 64.4 C 92 64.1791 91.8209 64 91.6 64 L 88.4 64 C 88.1791 64 88 64.1791 88 64.4 L 88 67.6 C 88 67.8209 87.8209 68 87.6 68 L 84.4 68 C 84.1791 68 84 68.1791 84 68.4 L 84 72 L 80.4 72 C 80.1791 72 80 72.1791 80 72.4 L 80 79.6 C 80 79.8209 79.8209 80 79.6 80 z M 71.6 76 L 68.4 76 C 68.1791 76 68 75.8209 68 75.6 L 68 72.4 C 68 72.1791 67.8209 72 67.6 72 L 64 72 L 64 68.4 C 64 68.1791 63.8209 68 63.6 68 L 60 68 L 60 64.4 C 60 64.1791 60.1791 64 60.4 64 L 63.6 64 C 63.8209 64 64 63.8209 64 63.6 L 64 60.4 C 64 60.1791 64.1791 60 64.4 60 L 67.6 60 C 67.8209 60 68 60.1791 68 60.4 L 68 67.6 C 68 67.8209 68.1791 68 68.4 68 L 71.6 68 C 71.8209 68 72 68.1791 72 68.4 L 72 76 z M 19.6 72 L 16.4 72 C 16.1791 72 16 71.8209 16 71.6 L 16 68.4 C 16 68.1791 16.1791 68 16.4 68 L 19.6 68 C 19.8209 68 20 68.1791 20 68.4 L 20 72 z M 43.6 68 L 28.4 68 C 28.1791 68 28 67.8209 28 67.6 L 28 60.4 C 28 60.1791 27.8209 60 27.6 60 L 24 60 L 24 56.4 C 24 56.1791 23.8209 56 23.6 56 L 16.4 56 C 16.1791 56 16 55.8209 16 55.6 L 16 48.4 C 16 48.1791 16.1791 48 16.4 48 L 23.6 48 C 23.8209 48 24 48.1791 24 48.4 L 24 51.6 C 24 51.8209 24.1791 52 24.4 52 L 31.6 52 C 31.8209 52 32 51.8209 32 51.6 L 32 48.4 C 32 48.1791 32.1791 48 32.4 48 L 43.6 48 C 43.8209 48 44 48.1791 44 48.4 L 44 52 L 36.4 52 C 36.1791 52 36 52.1791 36 52.4 L 36 55.6 C 36 55.8209 35.8209 56 35.6 56 L 32.4 56 C 32.1791 56 32 56.1791 32 56.4 L 32 63.6 C 32 63.8209 32.1791 64 32.4 64 L 35.6 64 C 35.8209 64 36 63.8209 36 63.6 L 36 60.4 C 36 60.1791 36.1791 60 36.4 60 L 40 60 L 40 63.6 C 40 63.8209 40.1791 64 40.4 64 L 44 64 L 44 67.6 C 44 67.8209 43.8209 68 43.6 68 z M 23.6 64 L 20.4 64 C 20.1791 64 20 63.8209 20 63.6 L 20 60.4 C 20 60.1791 20.1791 60 20.4 60 L 24 60 L 24 63.6 C 24 63.8209 23.8209 64 23.6 64 z M 99.6 60 L 96 60 L 96 56.4 C 96 56.1791 96.1791 56 96.4 56 L 100 56 L 100 59.6 C 100 59.8209 99.8209 60 99.6 60 z M 99.6 52 L 92 52 L 92 48.4 C 92 48.1791 92.1791 48 92.4 48 L 99.6 48 C 99.8209 48 100 48.1791 100 48.4 L 100 52 z M 67.6 52 L 64.4 52 C 64.1791 52 64 51.8209 64 51.6 L 64 48 L 67.6 48 C 67.8209 48 68 48.1791 68 48.4 L 68 51.6 C 68 51.8209 67.8209 52 67.6 52 z M 59.6 52 L 56.4 52 C 56.1791 52 56 51.8209 56 51.6 L 56 40.4 C 56 40.1791 55.8209 40 55.6 40 L 52.4 40 C 52.1791 40 52 40.1791 52 40.4 L 52 43.6 C 52 43.8209 51.8209 44 51.6 44 L 48.4 44 C 48.1791 44 48 43.8209 48 43.6 L 48 36.4 C 48 36.1791 48.1791 36 48.4 36 L 51.6 36 C 51.8209 36 52 35.8209 52 35.6 L 52 32.4 C 52 32.1791 51.8209 32 51.6 32 L 48.4 32 C 48.1791 32 48 31.8209 48 31.6 L 48 16.4 C 48 16.1791 48.1791 16 48.4 16 L 51.6 16 C 51.8209 16 52 16.1791 52 16.4 L 52 23.6 C 52 23.8209 52.1791 24 52.4 24 L 55.6 24 C 55.8209 24 56 24.1791 56 24.4 L 56 27.6 C 56 27.8209 56.1791 28 56.4 28 L 59.6 28 C 59.8209 28 60 28.1791 60 28.4 L 60 43.6 C 60 43.8209 60.1791 44 60.4 44 L 64 44 L 64 48 L 60.4 48 C 60.1791 48 60 48.1791 60 48.4 L 60 51.6 C 60 51.8209 59.8209 52 59.6 52 z M 131.6 44 L 104.4 44 C 104.179 44 104 43.8209 104 43.6 L 104 16.4 C 104 16.1791 104.179 16 104.4 16 L 131.6 16 C 131.821 16 132 16.1791 132 16.4 L 132 43.6 C 132 43.8209 131.821 44 131.6 44 z M 99.6 44 L 96.4 44 C 96.1791 44 96 43.8209 96 43.6 L 96 40 L 99.6 40 C 99.8209 40 100 40.1791 100 40.4 L 100 43.6 C 100 43.8209 99.8209 44 99.6 44 z M 91.6 44 L 88 44 L 88 40 L 92 40 L 92 43.6 C 92 43.8209 91.8209 44 91.6 44 z M 67.6 44 L 64 44 L 64 40.4 C 64 40.1791 64.1791 40 64.4 40 L 68 40 L 68 43.6 C 68 43.8209 67.8209 44 67.6 44 z M 43.6 44 L 16.4 44 C 16.1791 44 16 43.8209 16 43.6 L 16 16.4 C 16 16.1791 16.1791 16 16.4 16 L 43.6 16 C 43.8209 16 44 16.1791 44 16.4 L 44 43.6 C 44 43.8209 43.8209 44 43.6 44 z M 128 39.6 L 128 20.4 C 128 20.1791 127.821 20 127.6 20 L 108.4 20 C 108.179 20 108 20.1791 108 20.4 L 108 39.6 C 108 39.8209 108.179 40 108.4 40 L 127.6 40 C 127.821 40 128 39.8209 128 39.6 z M 95.6 40 L 92 40 L 92 36 L 95.6 36 C 95.8209 36 96 36.1791 96 36.4 L 96 40 z M 40 39.6 L 40 20.4 C 40 20.1791 39.8209 20 39.6 20 L 20.4 20 C 20.1791 20 20 20.1791 20 20.4 L 20 39.6 C 20 39.8209 20.1791 40 20.4 40 L 39.6 40 C 39.8209 40 40 39.8209 40 39.6 z M 123.6 36 L 112.4 36 C 112.179 36 112 35.8209 112 35.6 L 112 24.4 C 112 24.1791 112.179 24 112.4 24 L 123.6 24 C 123.821 24 124 24.1791 124 24.4 L 124 35.6 C 124 35.8209 123.821 36 123.6 36 z M 91.6 36 L 88 36 L 88 28.4 C 88 28.1791 87.8209 28 87.6 28 L 84.4 28 C 84.1791 28 84 27.8209 84 27.6 L 84 24 L 87.6 24 C 87.8209 24 88 23.8209 88 23.6 L 88 20 L 99.6 20 C 99.8209 20 100 20.1791 100 20.4 L 100 23.6 C 100 23.8209 99.8209 24 99.6 24 L 96.4 24 C 96.1791 24 96 24.1791 96 24.4 L 96 28 L 92.4 28 C 92.1791 28 92 28.1791 92 28.4 L 92 36 z M 35.6 36 L 24.4 36 C 24.1791 36 24 35.8209 24 35.6 L 24 24.4 C 24 24.1791 24.1791 24 24.4 24 L 35.6 24 C 35.8209 24 36 24.1791 36 24.4 L 36 35.6 C 36 35.8209 35.8209 36 35.6 36 z M 99.6 32 L 96.4 32 C 96.1791 32 96 31.8209 96 31.6 L 96 28 L 99.6 28 C 99.8209 28 100 28.1791 100 28.4 L 100 31.6 C 100 31.8209 99.8209 32 99.6 32 z M 83.6 24 L 80 24 L 80 20.4 C 80 20.1791 79.8209 20 79.6 20 L 76.4 20 C 76.1791 20 76 20.1791 76 20.4 L 76 24 L 72.4 24 C 72.1791 24 72 23.8209 72 23.6 L 72 20.4 C 72 20.1791 71.8209 20 71.6 20 L 68 20 L 68 16.4 C 68 16.1791 68.1791 16 68.4 16 L 87.6 16 C 87.8209 16 88 16.1791 88 16.4 L 88 20 L 84.4 20 C 84.1791 20 84 20.1791 84 20.4 L 84 24 z"
         id="path10" />
    </g>
  </g>
</svg>
